<?xml version="1.0" standalone="no"?>
 <!DOCTYPE svg PUBLIC "-//W3C//DTD SVG 1.1//EN" 
 "http://www.w3.org/Graphics/SVG/1.1/DTD/svg11.dtd"> 
<svg
  xmlns:svg="http://www.w3.org/2000/svg"
  xmlns="http://www.w3.org/2000/svg"
  xmlns:xlink="http://www.w3.org/1999/xlink"
  version="1.1"
  width="128.6510mm" height="101.6000mm" viewBox="0.0000 0.0000 128.6510 101.6000">
<title>SVG Image created as pcb-User_Drawings.svg date 2023/11/05 22:44:28 </title>
  <desc>Image generated by PCBNEW </desc>
<g style="fill:#000000; fill-opacity:1.0000;stroke:#000000; stroke-opacity:1.0000;
stroke-linecap:round; stroke-linejoin:round;"
 transform="translate(0 0) scale(1 1)">
</g>
<g style="fill:#000000; fill-opacity:0.0; 
stroke:#000000; stroke-width:0.0000; stroke-opacity:1; 
stroke-linecap:round; stroke-linejoin:round;">
</g>
<g style="fill:#000000; fill-opacity:1.0000; 
stroke:#000000; stroke-width:0.0212; stroke-opacity:1; 
stroke-linecap:round; stroke-linejoin:round;">
<rect x="-5.000000" y="-5.000000" width="138.651000" height="111.600000" rx="0.000000" />
</g>
<g style="fill:#FFFFFF; fill-opacity:1.0000; 
stroke:#FFFFFF; stroke-width:0.0212; stroke-opacity:1; 
stroke-linecap:round; stroke-linejoin:round;">
</g>
<g style="fill:#FFFFFF; fill-opacity:1.0000; 
stroke:#FFFFFF; stroke-width:0.1500; stroke-opacity:1; 
stroke-linecap:round; stroke-linejoin:round;">
</g>
<g style="fill:#FFFFFF; fill-opacity:0.0; 
stroke:#FFFFFF; stroke-width:0.1500; stroke-opacity:1; 
stroke-linecap:round; stroke-linejoin:round;">
<text x="43.2803" y="71.7893"
textLength="10.5833" font-size="1.3333" lengthAdjust="spacingAndGlyphs"
text-anchor="middle" opacity="0">MX_SW_solder</text>
<g class="stroked-text"><desc>MX_SW_solder</desc>
<path d="M38.3518 71.7441
L38.3518 70.7441
" />
<path d="M38.3518 70.7441
L38.6851 71.4584
" />
<path d="M38.6851 71.4584
L39.0184 70.7441
" />
<path d="M39.0184 70.7441
L39.0184 71.7441
" />
<path d="M39.3994 70.7441
L40.0660 71.7441
" />
<path d="M40.0660 70.7441
L39.3994 71.7441
" />
<path d="M40.2089 71.8393
L40.9708 71.8393
" />
<path d="M41.1613 71.6965
L41.3041 71.7441
" />
<path d="M41.3041 71.7441
L41.5422 71.7441
" />
<path d="M41.5422 71.7441
L41.6375 71.6965
" />
<path d="M41.6375 71.6965
L41.6851 71.6489
" />
<path d="M41.6851 71.6489
L41.7327 71.5536
" />
<path d="M41.7327 71.5536
L41.7327 71.4584
" />
<path d="M41.7327 71.4584
L41.6851 71.3631
" />
<path d="M41.6851 71.3631
L41.6375 71.3155
" />
<path d="M41.6375 71.3155
L41.5422 71.2679
" />
<path d="M41.5422 71.2679
L41.3518 71.2203
" />
<path d="M41.3518 71.2203
L41.2565 71.1727
" />
<path d="M41.2565 71.1727
L41.2089 71.1251
" />
<path d="M41.2089 71.1251
L41.1613 71.0298
" />
<path d="M41.1613 71.0298
L41.1613 70.9346
" />
<path d="M41.1613 70.9346
L41.2089 70.8393
" />
<path d="M41.2089 70.8393
L41.2565 70.7917
" />
<path d="M41.2565 70.7917
L41.3518 70.7441
" />
<path d="M41.3518 70.7441
L41.5899 70.7441
" />
<path d="M41.5899 70.7441
L41.7327 70.7917
" />
<path d="M42.0660 70.7441
L42.3041 71.7441
" />
<path d="M42.3041 71.7441
L42.4946 71.0298
" />
<path d="M42.4946 71.0298
L42.6851 71.7441
" />
<path d="M42.6851 71.7441
L42.9232 70.7441
" />
<path d="M43.0660 71.8393
L43.8280 71.8393
" />
<path d="M44.0184 71.6965
L44.1137 71.7441
" />
<path d="M44.1137 71.7441
L44.3041 71.7441
" />
<path d="M44.3041 71.7441
L44.3994 71.6965
" />
<path d="M44.3994 71.6965
L44.4470 71.6012
" />
<path d="M44.4470 71.6012
L44.4470 71.5536
" />
<path d="M44.4470 71.5536
L44.3994 71.4584
" />
<path d="M44.3994 71.4584
L44.3041 71.4108
" />
<path d="M44.3041 71.4108
L44.1613 71.4108
" />
<path d="M44.1613 71.4108
L44.0660 71.3631
" />
<path d="M44.0660 71.3631
L44.0184 71.2679
" />
<path d="M44.0184 71.2679
L44.0184 71.2203
" />
<path d="M44.0184 71.2203
L44.0660 71.1251
" />
<path d="M44.0660 71.1251
L44.1613 71.0774
" />
<path d="M44.1613 71.0774
L44.3041 71.0774
" />
<path d="M44.3041 71.0774
L44.3994 71.1251
" />
<path d="M45.0184 71.7441
L44.9232 71.6965
" />
<path d="M44.9232 71.6965
L44.8756 71.6489
" />
<path d="M44.8756 71.6489
L44.8280 71.5536
" />
<path d="M44.8280 71.5536
L44.8280 71.2679
" />
<path d="M44.8280 71.2679
L44.8756 71.1727
" />
<path d="M44.8756 71.1727
L44.9232 71.1251
" />
<path d="M44.9232 71.1251
L45.0184 71.0774
" />
<path d="M45.0184 71.0774
L45.1613 71.0774
" />
<path d="M45.1613 71.0774
L45.2565 71.1251
" />
<path d="M45.2565 71.1251
L45.3041 71.1727
" />
<path d="M45.3041 71.1727
L45.3518 71.2679
" />
<path d="M45.3518 71.2679
L45.3518 71.5536
" />
<path d="M45.3518 71.5536
L45.3041 71.6489
" />
<path d="M45.3041 71.6489
L45.2565 71.6965
" />
<path d="M45.2565 71.6965
L45.1613 71.7441
" />
<path d="M45.1613 71.7441
L45.0184 71.7441
" />
<path d="M45.9232 71.7441
L45.8280 71.6965
" />
<path d="M45.8280 71.6965
L45.7803 71.6012
" />
<path d="M45.7803 71.6012
L45.7803 70.7441
" />
<path d="M46.7327 71.7441
L46.7327 70.7441
" />
<path d="M46.7327 71.6965
L46.6375 71.7441
" />
<path d="M46.6375 71.7441
L46.4470 71.7441
" />
<path d="M46.4470 71.7441
L46.3518 71.6965
" />
<path d="M46.3518 71.6965
L46.3041 71.6489
" />
<path d="M46.3041 71.6489
L46.2565 71.5536
" />
<path d="M46.2565 71.5536
L46.2565 71.2679
" />
<path d="M46.2565 71.2679
L46.3041 71.1727
" />
<path d="M46.3041 71.1727
L46.3518 71.1251
" />
<path d="M46.3518 71.1251
L46.4470 71.0774
" />
<path d="M46.4470 71.0774
L46.6375 71.0774
" />
<path d="M46.6375 71.0774
L46.7327 71.1251
" />
<path d="M47.5899 71.6965
L47.4946 71.7441
" />
<path d="M47.4946 71.7441
L47.3041 71.7441
" />
<path d="M47.3041 71.7441
L47.2089 71.6965
" />
<path d="M47.2089 71.6965
L47.1613 71.6012
" />
<path d="M47.1613 71.6012
L47.1613 71.2203
" />
<path d="M47.1613 71.2203
L47.2089 71.1251
" />
<path d="M47.2089 71.1251
L47.3041 71.0774
" />
<path d="M47.3041 71.0774
L47.4946 71.0774
" />
<path d="M47.4946 71.0774
L47.5899 71.1251
" />
<path d="M47.5899 71.1251
L47.6375 71.2203
" />
<path d="M47.6375 71.2203
L47.6375 71.3155
" />
<path d="M47.6375 71.3155
L47.1613 71.4108
" />
<path d="M48.0660 71.7441
L48.0660 71.0774
" />
<path d="M48.0660 71.2679
L48.1137 71.1727
" />
<path d="M48.1137 71.1727
L48.1613 71.1251
" />
<path d="M48.1613 71.1251
L48.2565 71.0774
" />
<path d="M48.2565 71.0774
L48.3518 71.0774
" />
</g><text x="104.2403" y="31.1493"
textLength="10.5833" font-size="1.3333" lengthAdjust="spacingAndGlyphs"
text-anchor="middle" opacity="0">MX_SW_solder</text>
<g class="stroked-text"><desc>MX_SW_solder</desc>
<path d="M99.3118 31.1041
L99.3118 30.1041
" />
<path d="M99.3118 30.1041
L99.6451 30.8184
" />
<path d="M99.6451 30.8184
L99.9784 30.1041
" />
<path d="M99.9784 30.1041
L99.9784 31.1041
" />
<path d="M100.3594 30.1041
L101.0260 31.1041
" />
<path d="M101.0260 30.1041
L100.3594 31.1041
" />
<path d="M101.1689 31.1993
L101.9308 31.1993
" />
<path d="M102.1213 31.0565
L102.2641 31.1041
" />
<path d="M102.2641 31.1041
L102.5022 31.1041
" />
<path d="M102.5022 31.1041
L102.5975 31.0565
" />
<path d="M102.5975 31.0565
L102.6451 31.0089
" />
<path d="M102.6451 31.0089
L102.6927 30.9136
" />
<path d="M102.6927 30.9136
L102.6927 30.8184
" />
<path d="M102.6927 30.8184
L102.6451 30.7231
" />
<path d="M102.6451 30.7231
L102.5975 30.6755
" />
<path d="M102.5975 30.6755
L102.5022 30.6279
" />
<path d="M102.5022 30.6279
L102.3118 30.5803
" />
<path d="M102.3118 30.5803
L102.2165 30.5327
" />
<path d="M102.2165 30.5327
L102.1689 30.4851
" />
<path d="M102.1689 30.4851
L102.1213 30.3898
" />
<path d="M102.1213 30.3898
L102.1213 30.2946
" />
<path d="M102.1213 30.2946
L102.1689 30.1993
" />
<path d="M102.1689 30.1993
L102.2165 30.1517
" />
<path d="M102.2165 30.1517
L102.3118 30.1041
" />
<path d="M102.3118 30.1041
L102.5499 30.1041
" />
<path d="M102.5499 30.1041
L102.6927 30.1517
" />
<path d="M103.0260 30.1041
L103.2641 31.1041
" />
<path d="M103.2641 31.1041
L103.4546 30.3898
" />
<path d="M103.4546 30.3898
L103.6451 31.1041
" />
<path d="M103.6451 31.1041
L103.8832 30.1041
" />
<path d="M104.0260 31.1993
L104.7879 31.1993
" />
<path d="M104.9784 31.0565
L105.0737 31.1041
" />
<path d="M105.0737 31.1041
L105.2641 31.1041
" />
<path d="M105.2641 31.1041
L105.3594 31.0565
" />
<path d="M105.3594 31.0565
L105.4070 30.9612
" />
<path d="M105.4070 30.9612
L105.4070 30.9136
" />
<path d="M105.4070 30.9136
L105.3594 30.8184
" />
<path d="M105.3594 30.8184
L105.2641 30.7708
" />
<path d="M105.2641 30.7708
L105.1213 30.7708
" />
<path d="M105.1213 30.7708
L105.0260 30.7231
" />
<path d="M105.0260 30.7231
L104.9784 30.6279
" />
<path d="M104.9784 30.6279
L104.9784 30.5803
" />
<path d="M104.9784 30.5803
L105.0260 30.4851
" />
<path d="M105.0260 30.4851
L105.1213 30.4374
" />
<path d="M105.1213 30.4374
L105.2641 30.4374
" />
<path d="M105.2641 30.4374
L105.3594 30.4851
" />
<path d="M105.9784 31.1041
L105.8832 31.0565
" />
<path d="M105.8832 31.0565
L105.8356 31.0089
" />
<path d="M105.8356 31.0089
L105.7880 30.9136
" />
<path d="M105.7880 30.9136
L105.7880 30.6279
" />
<path d="M105.7880 30.6279
L105.8356 30.5327
" />
<path d="M105.8356 30.5327
L105.8832 30.4851
" />
<path d="M105.8832 30.4851
L105.9784 30.4374
" />
<path d="M105.9784 30.4374
L106.1213 30.4374
" />
<path d="M106.1213 30.4374
L106.2165 30.4851
" />
<path d="M106.2165 30.4851
L106.2641 30.5327
" />
<path d="M106.2641 30.5327
L106.3118 30.6279
" />
<path d="M106.3118 30.6279
L106.3118 30.9136
" />
<path d="M106.3118 30.9136
L106.2641 31.0089
" />
<path d="M106.2641 31.0089
L106.2165 31.0565
" />
<path d="M106.2165 31.0565
L106.1213 31.1041
" />
<path d="M106.1213 31.1041
L105.9784 31.1041
" />
<path d="M106.8832 31.1041
L106.7880 31.0565
" />
<path d="M106.7880 31.0565
L106.7403 30.9612
" />
<path d="M106.7403 30.9612
L106.7403 30.1041
" />
<path d="M107.6927 31.1041
L107.6927 30.1041
" />
<path d="M107.6927 31.0565
L107.5975 31.1041
" />
<path d="M107.5975 31.1041
L107.4070 31.1041
" />
<path d="M107.4070 31.1041
L107.3118 31.0565
" />
<path d="M107.3118 31.0565
L107.2641 31.0089
" />
<path d="M107.2641 31.0089
L107.2165 30.9136
" />
<path d="M107.2165 30.9136
L107.2165 30.6279
" />
<path d="M107.2165 30.6279
L107.2641 30.5327
" />
<path d="M107.2641 30.5327
L107.3118 30.4851
" />
<path d="M107.3118 30.4851
L107.4070 30.4374
" />
<path d="M107.4070 30.4374
L107.5975 30.4374
" />
<path d="M107.5975 30.4374
L107.6927 30.4851
" />
<path d="M108.5499 31.0565
L108.4546 31.1041
" />
<path d="M108.4546 31.1041
L108.2641 31.1041
" />
<path d="M108.2641 31.1041
L108.1689 31.0565
" />
<path d="M108.1689 31.0565
L108.1213 30.9612
" />
<path d="M108.1213 30.9612
L108.1213 30.5803
" />
<path d="M108.1213 30.5803
L108.1689 30.4851
" />
<path d="M108.1689 30.4851
L108.2641 30.4374
" />
<path d="M108.2641 30.4374
L108.4546 30.4374
" />
<path d="M108.4546 30.4374
L108.5499 30.4851
" />
<path d="M108.5499 30.4851
L108.5975 30.5803
" />
<path d="M108.5975 30.5803
L108.5975 30.6755
" />
<path d="M108.5975 30.6755
L108.1213 30.7708
" />
<path d="M109.0260 31.1041
L109.0260 30.4374
" />
<path d="M109.0260 30.6279
L109.0737 30.5327
" />
<path d="M109.0737 30.5327
L109.1213 30.4851
" />
<path d="M109.1213 30.4851
L109.2165 30.4374
" />
<path d="M109.2165 30.4374
L109.3118 30.4374
" />
</g><text x="104.2403" y="51.4693"
textLength="10.5833" font-size="1.3333" lengthAdjust="spacingAndGlyphs"
text-anchor="middle" opacity="0">MX_SW_solder</text>
<g class="stroked-text"><desc>MX_SW_solder</desc>
<path d="M99.3118 51.4241
L99.3118 50.4241
" />
<path d="M99.3118 50.4241
L99.6451 51.1384
" />
<path d="M99.6451 51.1384
L99.9784 50.4241
" />
<path d="M99.9784 50.4241
L99.9784 51.4241
" />
<path d="M100.3594 50.4241
L101.0260 51.4241
" />
<path d="M101.0260 50.4241
L100.3594 51.4241
" />
<path d="M101.1689 51.5193
L101.9308 51.5193
" />
<path d="M102.1213 51.3765
L102.2641 51.4241
" />
<path d="M102.2641 51.4241
L102.5022 51.4241
" />
<path d="M102.5022 51.4241
L102.5975 51.3765
" />
<path d="M102.5975 51.3765
L102.6451 51.3289
" />
<path d="M102.6451 51.3289
L102.6927 51.2336
" />
<path d="M102.6927 51.2336
L102.6927 51.1384
" />
<path d="M102.6927 51.1384
L102.6451 51.0431
" />
<path d="M102.6451 51.0431
L102.5975 50.9955
" />
<path d="M102.5975 50.9955
L102.5022 50.9479
" />
<path d="M102.5022 50.9479
L102.3118 50.9003
" />
<path d="M102.3118 50.9003
L102.2165 50.8527
" />
<path d="M102.2165 50.8527
L102.1689 50.8051
" />
<path d="M102.1689 50.8051
L102.1213 50.7098
" />
<path d="M102.1213 50.7098
L102.1213 50.6146
" />
<path d="M102.1213 50.6146
L102.1689 50.5193
" />
<path d="M102.1689 50.5193
L102.2165 50.4717
" />
<path d="M102.2165 50.4717
L102.3118 50.4241
" />
<path d="M102.3118 50.4241
L102.5499 50.4241
" />
<path d="M102.5499 50.4241
L102.6927 50.4717
" />
<path d="M103.0260 50.4241
L103.2641 51.4241
" />
<path d="M103.2641 51.4241
L103.4546 50.7098
" />
<path d="M103.4546 50.7098
L103.6451 51.4241
" />
<path d="M103.6451 51.4241
L103.8832 50.4241
" />
<path d="M104.0260 51.5193
L104.7879 51.5193
" />
<path d="M104.9784 51.3765
L105.0737 51.4241
" />
<path d="M105.0737 51.4241
L105.2641 51.4241
" />
<path d="M105.2641 51.4241
L105.3594 51.3765
" />
<path d="M105.3594 51.3765
L105.4070 51.2812
" />
<path d="M105.4070 51.2812
L105.4070 51.2336
" />
<path d="M105.4070 51.2336
L105.3594 51.1384
" />
<path d="M105.3594 51.1384
L105.2641 51.0908
" />
<path d="M105.2641 51.0908
L105.1213 51.0908
" />
<path d="M105.1213 51.0908
L105.0260 51.0431
" />
<path d="M105.0260 51.0431
L104.9784 50.9479
" />
<path d="M104.9784 50.9479
L104.9784 50.9003
" />
<path d="M104.9784 50.9003
L105.0260 50.8051
" />
<path d="M105.0260 50.8051
L105.1213 50.7574
" />
<path d="M105.1213 50.7574
L105.2641 50.7574
" />
<path d="M105.2641 50.7574
L105.3594 50.8051
" />
<path d="M105.9784 51.4241
L105.8832 51.3765
" />
<path d="M105.8832 51.3765
L105.8356 51.3289
" />
<path d="M105.8356 51.3289
L105.7880 51.2336
" />
<path d="M105.7880 51.2336
L105.7880 50.9479
" />
<path d="M105.7880 50.9479
L105.8356 50.8527
" />
<path d="M105.8356 50.8527
L105.8832 50.8051
" />
<path d="M105.8832 50.8051
L105.9784 50.7574
" />
<path d="M105.9784 50.7574
L106.1213 50.7574
" />
<path d="M106.1213 50.7574
L106.2165 50.8051
" />
<path d="M106.2165 50.8051
L106.2641 50.8527
" />
<path d="M106.2641 50.8527
L106.3118 50.9479
" />
<path d="M106.3118 50.9479
L106.3118 51.2336
" />
<path d="M106.3118 51.2336
L106.2641 51.3289
" />
<path d="M106.2641 51.3289
L106.2165 51.3765
" />
<path d="M106.2165 51.3765
L106.1213 51.4241
" />
<path d="M106.1213 51.4241
L105.9784 51.4241
" />
<path d="M106.8832 51.4241
L106.7880 51.3765
" />
<path d="M106.7880 51.3765
L106.7403 51.2812
" />
<path d="M106.7403 51.2812
L106.7403 50.4241
" />
<path d="M107.6927 51.4241
L107.6927 50.4241
" />
<path d="M107.6927 51.3765
L107.5975 51.4241
" />
<path d="M107.5975 51.4241
L107.4070 51.4241
" />
<path d="M107.4070 51.4241
L107.3118 51.3765
" />
<path d="M107.3118 51.3765
L107.2641 51.3289
" />
<path d="M107.2641 51.3289
L107.2165 51.2336
" />
<path d="M107.2165 51.2336
L107.2165 50.9479
" />
<path d="M107.2165 50.9479
L107.2641 50.8527
" />
<path d="M107.2641 50.8527
L107.3118 50.8051
" />
<path d="M107.3118 50.8051
L107.4070 50.7574
" />
<path d="M107.4070 50.7574
L107.5975 50.7574
" />
<path d="M107.5975 50.7574
L107.6927 50.8051
" />
<path d="M108.5499 51.3765
L108.4546 51.4241
" />
<path d="M108.4546 51.4241
L108.2641 51.4241
" />
<path d="M108.2641 51.4241
L108.1689 51.3765
" />
<path d="M108.1689 51.3765
L108.1213 51.2812
" />
<path d="M108.1213 51.2812
L108.1213 50.9003
" />
<path d="M108.1213 50.9003
L108.1689 50.8051
" />
<path d="M108.1689 50.8051
L108.2641 50.7574
" />
<path d="M108.2641 50.7574
L108.4546 50.7574
" />
<path d="M108.4546 50.7574
L108.5499 50.8051
" />
<path d="M108.5499 50.8051
L108.5975 50.9003
" />
<path d="M108.5975 50.9003
L108.5975 50.9955
" />
<path d="M108.5975 50.9955
L108.1213 51.0908
" />
<path d="M109.0260 51.4241
L109.0260 50.7574
" />
<path d="M109.0260 50.9479
L109.0737 50.8527
" />
<path d="M109.0737 50.8527
L109.1213 50.8051
" />
<path d="M109.1213 50.8051
L109.2165 50.7574
" />
<path d="M109.2165 50.7574
L109.3118 50.7574
" />
</g><text x="83.9203" y="51.4693"
textLength="10.5833" font-size="1.3333" lengthAdjust="spacingAndGlyphs"
text-anchor="middle" opacity="0">MX_SW_solder</text>
<g class="stroked-text"><desc>MX_SW_solder</desc>
<path d="M78.9918 51.4241
L78.9918 50.4241
" />
<path d="M78.9918 50.4241
L79.3251 51.1384
" />
<path d="M79.3251 51.1384
L79.6584 50.4241
" />
<path d="M79.6584 50.4241
L79.6584 51.4241
" />
<path d="M80.0394 50.4241
L80.7060 51.4241
" />
<path d="M80.7060 50.4241
L80.0394 51.4241
" />
<path d="M80.8489 51.5193
L81.6108 51.5193
" />
<path d="M81.8013 51.3765
L81.9441 51.4241
" />
<path d="M81.9441 51.4241
L82.1822 51.4241
" />
<path d="M82.1822 51.4241
L82.2775 51.3765
" />
<path d="M82.2775 51.3765
L82.3251 51.3289
" />
<path d="M82.3251 51.3289
L82.3727 51.2336
" />
<path d="M82.3727 51.2336
L82.3727 51.1384
" />
<path d="M82.3727 51.1384
L82.3251 51.0431
" />
<path d="M82.3251 51.0431
L82.2775 50.9955
" />
<path d="M82.2775 50.9955
L82.1822 50.9479
" />
<path d="M82.1822 50.9479
L81.9918 50.9003
" />
<path d="M81.9918 50.9003
L81.8965 50.8527
" />
<path d="M81.8965 50.8527
L81.8489 50.8051
" />
<path d="M81.8489 50.8051
L81.8013 50.7098
" />
<path d="M81.8013 50.7098
L81.8013 50.6146
" />
<path d="M81.8013 50.6146
L81.8489 50.5193
" />
<path d="M81.8489 50.5193
L81.8965 50.4717
" />
<path d="M81.8965 50.4717
L81.9918 50.4241
" />
<path d="M81.9918 50.4241
L82.2299 50.4241
" />
<path d="M82.2299 50.4241
L82.3727 50.4717
" />
<path d="M82.7060 50.4241
L82.9441 51.4241
" />
<path d="M82.9441 51.4241
L83.1346 50.7098
" />
<path d="M83.1346 50.7098
L83.3251 51.4241
" />
<path d="M83.3251 51.4241
L83.5632 50.4241
" />
<path d="M83.7060 51.5193
L84.4680 51.5193
" />
<path d="M84.6584 51.3765
L84.7537 51.4241
" />
<path d="M84.7537 51.4241
L84.9441 51.4241
" />
<path d="M84.9441 51.4241
L85.0394 51.3765
" />
<path d="M85.0394 51.3765
L85.0870 51.2812
" />
<path d="M85.0870 51.2812
L85.0870 51.2336
" />
<path d="M85.0870 51.2336
L85.0394 51.1384
" />
<path d="M85.0394 51.1384
L84.9441 51.0908
" />
<path d="M84.9441 51.0908
L84.8013 51.0908
" />
<path d="M84.8013 51.0908
L84.7060 51.0431
" />
<path d="M84.7060 51.0431
L84.6584 50.9479
" />
<path d="M84.6584 50.9479
L84.6584 50.9003
" />
<path d="M84.6584 50.9003
L84.7060 50.8051
" />
<path d="M84.7060 50.8051
L84.8013 50.7574
" />
<path d="M84.8013 50.7574
L84.9441 50.7574
" />
<path d="M84.9441 50.7574
L85.0394 50.8051
" />
<path d="M85.6584 51.4241
L85.5632 51.3765
" />
<path d="M85.5632 51.3765
L85.5156 51.3289
" />
<path d="M85.5156 51.3289
L85.4680 51.2336
" />
<path d="M85.4680 51.2336
L85.4680 50.9479
" />
<path d="M85.4680 50.9479
L85.5156 50.8527
" />
<path d="M85.5156 50.8527
L85.5632 50.8051
" />
<path d="M85.5632 50.8051
L85.6584 50.7574
" />
<path d="M85.6584 50.7574
L85.8013 50.7574
" />
<path d="M85.8013 50.7574
L85.8965 50.8051
" />
<path d="M85.8965 50.8051
L85.9441 50.8527
" />
<path d="M85.9441 50.8527
L85.9918 50.9479
" />
<path d="M85.9918 50.9479
L85.9918 51.2336
" />
<path d="M85.9918 51.2336
L85.9441 51.3289
" />
<path d="M85.9441 51.3289
L85.8965 51.3765
" />
<path d="M85.8965 51.3765
L85.8013 51.4241
" />
<path d="M85.8013 51.4241
L85.6584 51.4241
" />
<path d="M86.5632 51.4241
L86.4680 51.3765
" />
<path d="M86.4680 51.3765
L86.4203 51.2812
" />
<path d="M86.4203 51.2812
L86.4203 50.4241
" />
<path d="M87.3727 51.4241
L87.3727 50.4241
" />
<path d="M87.3727 51.3765
L87.2775 51.4241
" />
<path d="M87.2775 51.4241
L87.0870 51.4241
" />
<path d="M87.0870 51.4241
L86.9918 51.3765
" />
<path d="M86.9918 51.3765
L86.9441 51.3289
" />
<path d="M86.9441 51.3289
L86.8965 51.2336
" />
<path d="M86.8965 51.2336
L86.8965 50.9479
" />
<path d="M86.8965 50.9479
L86.9441 50.8527
" />
<path d="M86.9441 50.8527
L86.9918 50.8051
" />
<path d="M86.9918 50.8051
L87.0870 50.7574
" />
<path d="M87.0870 50.7574
L87.2775 50.7574
" />
<path d="M87.2775 50.7574
L87.3727 50.8051
" />
<path d="M88.2299 51.3765
L88.1346 51.4241
" />
<path d="M88.1346 51.4241
L87.9441 51.4241
" />
<path d="M87.9441 51.4241
L87.8489 51.3765
" />
<path d="M87.8489 51.3765
L87.8013 51.2812
" />
<path d="M87.8013 51.2812
L87.8013 50.9003
" />
<path d="M87.8013 50.9003
L87.8489 50.8051
" />
<path d="M87.8489 50.8051
L87.9441 50.7574
" />
<path d="M87.9441 50.7574
L88.1346 50.7574
" />
<path d="M88.1346 50.7574
L88.2299 50.8051
" />
<path d="M88.2299 50.8051
L88.2775 50.9003
" />
<path d="M88.2775 50.9003
L88.2775 50.9955
" />
<path d="M88.2775 50.9955
L87.8013 51.0908
" />
<path d="M88.7060 51.4241
L88.7060 50.7574
" />
<path d="M88.7060 50.9479
L88.7537 50.8527
" />
<path d="M88.7537 50.8527
L88.8013 50.8051
" />
<path d="M88.8013 50.8051
L88.8965 50.7574
" />
<path d="M88.8965 50.7574
L88.9918 50.7574
" />
</g><text x="83.9203" y="10.8293"
textLength="10.5833" font-size="1.3333" lengthAdjust="spacingAndGlyphs"
text-anchor="middle" opacity="0">MX_SW_solder</text>
<g class="stroked-text"><desc>MX_SW_solder</desc>
<path d="M78.9918 10.7841
L78.9918 9.7841
" />
<path d="M78.9918 9.7841
L79.3251 10.4984
" />
<path d="M79.3251 10.4984
L79.6584 9.7841
" />
<path d="M79.6584 9.7841
L79.6584 10.7841
" />
<path d="M80.0394 9.7841
L80.7060 10.7841
" />
<path d="M80.7060 9.7841
L80.0394 10.7841
" />
<path d="M80.8489 10.8793
L81.6108 10.8793
" />
<path d="M81.8013 10.7365
L81.9441 10.7841
" />
<path d="M81.9441 10.7841
L82.1822 10.7841
" />
<path d="M82.1822 10.7841
L82.2775 10.7365
" />
<path d="M82.2775 10.7365
L82.3251 10.6889
" />
<path d="M82.3251 10.6889
L82.3727 10.5936
" />
<path d="M82.3727 10.5936
L82.3727 10.4984
" />
<path d="M82.3727 10.4984
L82.3251 10.4031
" />
<path d="M82.3251 10.4031
L82.2775 10.3555
" />
<path d="M82.2775 10.3555
L82.1822 10.3079
" />
<path d="M82.1822 10.3079
L81.9918 10.2603
" />
<path d="M81.9918 10.2603
L81.8965 10.2127
" />
<path d="M81.8965 10.2127
L81.8489 10.1651
" />
<path d="M81.8489 10.1651
L81.8013 10.0698
" />
<path d="M81.8013 10.0698
L81.8013 9.9746
" />
<path d="M81.8013 9.9746
L81.8489 9.8793
" />
<path d="M81.8489 9.8793
L81.8965 9.8317
" />
<path d="M81.8965 9.8317
L81.9918 9.7841
" />
<path d="M81.9918 9.7841
L82.2299 9.7841
" />
<path d="M82.2299 9.7841
L82.3727 9.8317
" />
<path d="M82.7060 9.7841
L82.9441 10.7841
" />
<path d="M82.9441 10.7841
L83.1346 10.0698
" />
<path d="M83.1346 10.0698
L83.3251 10.7841
" />
<path d="M83.3251 10.7841
L83.5632 9.7841
" />
<path d="M83.7060 10.8793
L84.4680 10.8793
" />
<path d="M84.6584 10.7365
L84.7537 10.7841
" />
<path d="M84.7537 10.7841
L84.9441 10.7841
" />
<path d="M84.9441 10.7841
L85.0394 10.7365
" />
<path d="M85.0394 10.7365
L85.0870 10.6412
" />
<path d="M85.0870 10.6412
L85.0870 10.5936
" />
<path d="M85.0870 10.5936
L85.0394 10.4984
" />
<path d="M85.0394 10.4984
L84.9441 10.4508
" />
<path d="M84.9441 10.4508
L84.8013 10.4508
" />
<path d="M84.8013 10.4508
L84.7060 10.4031
" />
<path d="M84.7060 10.4031
L84.6584 10.3079
" />
<path d="M84.6584 10.3079
L84.6584 10.2603
" />
<path d="M84.6584 10.2603
L84.7060 10.1651
" />
<path d="M84.7060 10.1651
L84.8013 10.1174
" />
<path d="M84.8013 10.1174
L84.9441 10.1174
" />
<path d="M84.9441 10.1174
L85.0394 10.1651
" />
<path d="M85.6584 10.7841
L85.5632 10.7365
" />
<path d="M85.5632 10.7365
L85.5156 10.6889
" />
<path d="M85.5156 10.6889
L85.4680 10.5936
" />
<path d="M85.4680 10.5936
L85.4680 10.3079
" />
<path d="M85.4680 10.3079
L85.5156 10.2127
" />
<path d="M85.5156 10.2127
L85.5632 10.1651
" />
<path d="M85.5632 10.1651
L85.6584 10.1174
" />
<path d="M85.6584 10.1174
L85.8013 10.1174
" />
<path d="M85.8013 10.1174
L85.8965 10.1651
" />
<path d="M85.8965 10.1651
L85.9441 10.2127
" />
<path d="M85.9441 10.2127
L85.9918 10.3079
" />
<path d="M85.9918 10.3079
L85.9918 10.5936
" />
<path d="M85.9918 10.5936
L85.9441 10.6889
" />
<path d="M85.9441 10.6889
L85.8965 10.7365
" />
<path d="M85.8965 10.7365
L85.8013 10.7841
" />
<path d="M85.8013 10.7841
L85.6584 10.7841
" />
<path d="M86.5632 10.7841
L86.4680 10.7365
" />
<path d="M86.4680 10.7365
L86.4203 10.6412
" />
<path d="M86.4203 10.6412
L86.4203 9.7841
" />
<path d="M87.3727 10.7841
L87.3727 9.7841
" />
<path d="M87.3727 10.7365
L87.2775 10.7841
" />
<path d="M87.2775 10.7841
L87.0870 10.7841
" />
<path d="M87.0870 10.7841
L86.9918 10.7365
" />
<path d="M86.9918 10.7365
L86.9441 10.6889
" />
<path d="M86.9441 10.6889
L86.8965 10.5936
" />
<path d="M86.8965 10.5936
L86.8965 10.3079
" />
<path d="M86.8965 10.3079
L86.9441 10.2127
" />
<path d="M86.9441 10.2127
L86.9918 10.1651
" />
<path d="M86.9918 10.1651
L87.0870 10.1174
" />
<path d="M87.0870 10.1174
L87.2775 10.1174
" />
<path d="M87.2775 10.1174
L87.3727 10.1651
" />
<path d="M88.2299 10.7365
L88.1346 10.7841
" />
<path d="M88.1346 10.7841
L87.9441 10.7841
" />
<path d="M87.9441 10.7841
L87.8489 10.7365
" />
<path d="M87.8489 10.7365
L87.8013 10.6412
" />
<path d="M87.8013 10.6412
L87.8013 10.2603
" />
<path d="M87.8013 10.2603
L87.8489 10.1651
" />
<path d="M87.8489 10.1651
L87.9441 10.1174
" />
<path d="M87.9441 10.1174
L88.1346 10.1174
" />
<path d="M88.1346 10.1174
L88.2299 10.1651
" />
<path d="M88.2299 10.1651
L88.2775 10.2603
" />
<path d="M88.2775 10.2603
L88.2775 10.3555
" />
<path d="M88.2775 10.3555
L87.8013 10.4508
" />
<path d="M88.7060 10.7841
L88.7060 10.1174
" />
<path d="M88.7060 10.3079
L88.7537 10.2127
" />
<path d="M88.7537 10.2127
L88.8013 10.1651
" />
<path d="M88.8013 10.1651
L88.8965 10.1174
" />
<path d="M88.8965 10.1174
L88.9918 10.1174
" />
</g><text x="83.9203" y="71.7893"
textLength="10.5833" font-size="1.3333" lengthAdjust="spacingAndGlyphs"
text-anchor="middle" opacity="0">MX_SW_solder</text>
<g class="stroked-text"><desc>MX_SW_solder</desc>
<path d="M78.9918 71.7441
L78.9918 70.7441
" />
<path d="M78.9918 70.7441
L79.3251 71.4584
" />
<path d="M79.3251 71.4584
L79.6584 70.7441
" />
<path d="M79.6584 70.7441
L79.6584 71.7441
" />
<path d="M80.0394 70.7441
L80.7060 71.7441
" />
<path d="M80.7060 70.7441
L80.0394 71.7441
" />
<path d="M80.8489 71.8393
L81.6108 71.8393
" />
<path d="M81.8013 71.6965
L81.9441 71.7441
" />
<path d="M81.9441 71.7441
L82.1822 71.7441
" />
<path d="M82.1822 71.7441
L82.2775 71.6965
" />
<path d="M82.2775 71.6965
L82.3251 71.6489
" />
<path d="M82.3251 71.6489
L82.3727 71.5536
" />
<path d="M82.3727 71.5536
L82.3727 71.4584
" />
<path d="M82.3727 71.4584
L82.3251 71.3631
" />
<path d="M82.3251 71.3631
L82.2775 71.3155
" />
<path d="M82.2775 71.3155
L82.1822 71.2679
" />
<path d="M82.1822 71.2679
L81.9918 71.2203
" />
<path d="M81.9918 71.2203
L81.8965 71.1727
" />
<path d="M81.8965 71.1727
L81.8489 71.1251
" />
<path d="M81.8489 71.1251
L81.8013 71.0298
" />
<path d="M81.8013 71.0298
L81.8013 70.9346
" />
<path d="M81.8013 70.9346
L81.8489 70.8393
" />
<path d="M81.8489 70.8393
L81.8965 70.7917
" />
<path d="M81.8965 70.7917
L81.9918 70.7441
" />
<path d="M81.9918 70.7441
L82.2299 70.7441
" />
<path d="M82.2299 70.7441
L82.3727 70.7917
" />
<path d="M82.7060 70.7441
L82.9441 71.7441
" />
<path d="M82.9441 71.7441
L83.1346 71.0298
" />
<path d="M83.1346 71.0298
L83.3251 71.7441
" />
<path d="M83.3251 71.7441
L83.5632 70.7441
" />
<path d="M83.7060 71.8393
L84.4680 71.8393
" />
<path d="M84.6584 71.6965
L84.7537 71.7441
" />
<path d="M84.7537 71.7441
L84.9441 71.7441
" />
<path d="M84.9441 71.7441
L85.0394 71.6965
" />
<path d="M85.0394 71.6965
L85.0870 71.6012
" />
<path d="M85.0870 71.6012
L85.0870 71.5536
" />
<path d="M85.0870 71.5536
L85.0394 71.4584
" />
<path d="M85.0394 71.4584
L84.9441 71.4108
" />
<path d="M84.9441 71.4108
L84.8013 71.4108
" />
<path d="M84.8013 71.4108
L84.7060 71.3631
" />
<path d="M84.7060 71.3631
L84.6584 71.2679
" />
<path d="M84.6584 71.2679
L84.6584 71.2203
" />
<path d="M84.6584 71.2203
L84.7060 71.1251
" />
<path d="M84.7060 71.1251
L84.8013 71.0774
" />
<path d="M84.8013 71.0774
L84.9441 71.0774
" />
<path d="M84.9441 71.0774
L85.0394 71.1251
" />
<path d="M85.6584 71.7441
L85.5632 71.6965
" />
<path d="M85.5632 71.6965
L85.5156 71.6489
" />
<path d="M85.5156 71.6489
L85.4680 71.5536
" />
<path d="M85.4680 71.5536
L85.4680 71.2679
" />
<path d="M85.4680 71.2679
L85.5156 71.1727
" />
<path d="M85.5156 71.1727
L85.5632 71.1251
" />
<path d="M85.5632 71.1251
L85.6584 71.0774
" />
<path d="M85.6584 71.0774
L85.8013 71.0774
" />
<path d="M85.8013 71.0774
L85.8965 71.1251
" />
<path d="M85.8965 71.1251
L85.9441 71.1727
" />
<path d="M85.9441 71.1727
L85.9918 71.2679
" />
<path d="M85.9918 71.2679
L85.9918 71.5536
" />
<path d="M85.9918 71.5536
L85.9441 71.6489
" />
<path d="M85.9441 71.6489
L85.8965 71.6965
" />
<path d="M85.8965 71.6965
L85.8013 71.7441
" />
<path d="M85.8013 71.7441
L85.6584 71.7441
" />
<path d="M86.5632 71.7441
L86.4680 71.6965
" />
<path d="M86.4680 71.6965
L86.4203 71.6012
" />
<path d="M86.4203 71.6012
L86.4203 70.7441
" />
<path d="M87.3727 71.7441
L87.3727 70.7441
" />
<path d="M87.3727 71.6965
L87.2775 71.7441
" />
<path d="M87.2775 71.7441
L87.0870 71.7441
" />
<path d="M87.0870 71.7441
L86.9918 71.6965
" />
<path d="M86.9918 71.6965
L86.9441 71.6489
" />
<path d="M86.9441 71.6489
L86.8965 71.5536
" />
<path d="M86.8965 71.5536
L86.8965 71.2679
" />
<path d="M86.8965 71.2679
L86.9441 71.1727
" />
<path d="M86.9441 71.1727
L86.9918 71.1251
" />
<path d="M86.9918 71.1251
L87.0870 71.0774
" />
<path d="M87.0870 71.0774
L87.2775 71.0774
" />
<path d="M87.2775 71.0774
L87.3727 71.1251
" />
<path d="M88.2299 71.6965
L88.1346 71.7441
" />
<path d="M88.1346 71.7441
L87.9441 71.7441
" />
<path d="M87.9441 71.7441
L87.8489 71.6965
" />
<path d="M87.8489 71.6965
L87.8013 71.6012
" />
<path d="M87.8013 71.6012
L87.8013 71.2203
" />
<path d="M87.8013 71.2203
L87.8489 71.1251
" />
<path d="M87.8489 71.1251
L87.9441 71.0774
" />
<path d="M87.9441 71.0774
L88.1346 71.0774
" />
<path d="M88.1346 71.0774
L88.2299 71.1251
" />
<path d="M88.2299 71.1251
L88.2775 71.2203
" />
<path d="M88.2775 71.2203
L88.2775 71.3155
" />
<path d="M88.2775 71.3155
L87.8013 71.4108
" />
<path d="M88.7060 71.7441
L88.7060 71.0774
" />
<path d="M88.7060 71.2679
L88.7537 71.1727
" />
<path d="M88.7537 71.1727
L88.8013 71.1251
" />
<path d="M88.8013 71.1251
L88.8965 71.0774
" />
<path d="M88.8965 71.0774
L88.9918 71.0774
" />
</g><text x="43.2803" y="31.1493"
textLength="10.5833" font-size="1.3333" lengthAdjust="spacingAndGlyphs"
text-anchor="middle" opacity="0">MX_SW_solder</text>
<g class="stroked-text"><desc>MX_SW_solder</desc>
<path d="M38.3518 31.1041
L38.3518 30.1041
" />
<path d="M38.3518 30.1041
L38.6851 30.8184
" />
<path d="M38.6851 30.8184
L39.0184 30.1041
" />
<path d="M39.0184 30.1041
L39.0184 31.1041
" />
<path d="M39.3994 30.1041
L40.0660 31.1041
" />
<path d="M40.0660 30.1041
L39.3994 31.1041
" />
<path d="M40.2089 31.1993
L40.9708 31.1993
" />
<path d="M41.1613 31.0565
L41.3041 31.1041
" />
<path d="M41.3041 31.1041
L41.5422 31.1041
" />
<path d="M41.5422 31.1041
L41.6375 31.0565
" />
<path d="M41.6375 31.0565
L41.6851 31.0089
" />
<path d="M41.6851 31.0089
L41.7327 30.9136
" />
<path d="M41.7327 30.9136
L41.7327 30.8184
" />
<path d="M41.7327 30.8184
L41.6851 30.7231
" />
<path d="M41.6851 30.7231
L41.6375 30.6755
" />
<path d="M41.6375 30.6755
L41.5422 30.6279
" />
<path d="M41.5422 30.6279
L41.3518 30.5803
" />
<path d="M41.3518 30.5803
L41.2565 30.5327
" />
<path d="M41.2565 30.5327
L41.2089 30.4851
" />
<path d="M41.2089 30.4851
L41.1613 30.3898
" />
<path d="M41.1613 30.3898
L41.1613 30.2946
" />
<path d="M41.1613 30.2946
L41.2089 30.1993
" />
<path d="M41.2089 30.1993
L41.2565 30.1517
" />
<path d="M41.2565 30.1517
L41.3518 30.1041
" />
<path d="M41.3518 30.1041
L41.5899 30.1041
" />
<path d="M41.5899 30.1041
L41.7327 30.1517
" />
<path d="M42.0660 30.1041
L42.3041 31.1041
" />
<path d="M42.3041 31.1041
L42.4946 30.3898
" />
<path d="M42.4946 30.3898
L42.6851 31.1041
" />
<path d="M42.6851 31.1041
L42.9232 30.1041
" />
<path d="M43.0660 31.1993
L43.8280 31.1993
" />
<path d="M44.0184 31.0565
L44.1137 31.1041
" />
<path d="M44.1137 31.1041
L44.3041 31.1041
" />
<path d="M44.3041 31.1041
L44.3994 31.0565
" />
<path d="M44.3994 31.0565
L44.4470 30.9612
" />
<path d="M44.4470 30.9612
L44.4470 30.9136
" />
<path d="M44.4470 30.9136
L44.3994 30.8184
" />
<path d="M44.3994 30.8184
L44.3041 30.7708
" />
<path d="M44.3041 30.7708
L44.1613 30.7708
" />
<path d="M44.1613 30.7708
L44.0660 30.7231
" />
<path d="M44.0660 30.7231
L44.0184 30.6279
" />
<path d="M44.0184 30.6279
L44.0184 30.5803
" />
<path d="M44.0184 30.5803
L44.0660 30.4851
" />
<path d="M44.0660 30.4851
L44.1613 30.4374
" />
<path d="M44.1613 30.4374
L44.3041 30.4374
" />
<path d="M44.3041 30.4374
L44.3994 30.4851
" />
<path d="M45.0184 31.1041
L44.9232 31.0565
" />
<path d="M44.9232 31.0565
L44.8756 31.0089
" />
<path d="M44.8756 31.0089
L44.8280 30.9136
" />
<path d="M44.8280 30.9136
L44.8280 30.6279
" />
<path d="M44.8280 30.6279
L44.8756 30.5327
" />
<path d="M44.8756 30.5327
L44.9232 30.4851
" />
<path d="M44.9232 30.4851
L45.0184 30.4374
" />
<path d="M45.0184 30.4374
L45.1613 30.4374
" />
<path d="M45.1613 30.4374
L45.2565 30.4851
" />
<path d="M45.2565 30.4851
L45.3041 30.5327
" />
<path d="M45.3041 30.5327
L45.3518 30.6279
" />
<path d="M45.3518 30.6279
L45.3518 30.9136
" />
<path d="M45.3518 30.9136
L45.3041 31.0089
" />
<path d="M45.3041 31.0089
L45.2565 31.0565
" />
<path d="M45.2565 31.0565
L45.1613 31.1041
" />
<path d="M45.1613 31.1041
L45.0184 31.1041
" />
<path d="M45.9232 31.1041
L45.8280 31.0565
" />
<path d="M45.8280 31.0565
L45.7803 30.9612
" />
<path d="M45.7803 30.9612
L45.7803 30.1041
" />
<path d="M46.7327 31.1041
L46.7327 30.1041
" />
<path d="M46.7327 31.0565
L46.6375 31.1041
" />
<path d="M46.6375 31.1041
L46.4470 31.1041
" />
<path d="M46.4470 31.1041
L46.3518 31.0565
" />
<path d="M46.3518 31.0565
L46.3041 31.0089
" />
<path d="M46.3041 31.0089
L46.2565 30.9136
" />
<path d="M46.2565 30.9136
L46.2565 30.6279
" />
<path d="M46.2565 30.6279
L46.3041 30.5327
" />
<path d="M46.3041 30.5327
L46.3518 30.4851
" />
<path d="M46.3518 30.4851
L46.4470 30.4374
" />
<path d="M46.4470 30.4374
L46.6375 30.4374
" />
<path d="M46.6375 30.4374
L46.7327 30.4851
" />
<path d="M47.5899 31.0565
L47.4946 31.1041
" />
<path d="M47.4946 31.1041
L47.3041 31.1041
" />
<path d="M47.3041 31.1041
L47.2089 31.0565
" />
<path d="M47.2089 31.0565
L47.1613 30.9612
" />
<path d="M47.1613 30.9612
L47.1613 30.5803
" />
<path d="M47.1613 30.5803
L47.2089 30.4851
" />
<path d="M47.2089 30.4851
L47.3041 30.4374
" />
<path d="M47.3041 30.4374
L47.4946 30.4374
" />
<path d="M47.4946 30.4374
L47.5899 30.4851
" />
<path d="M47.5899 30.4851
L47.6375 30.5803
" />
<path d="M47.6375 30.5803
L47.6375 30.6755
" />
<path d="M47.6375 30.6755
L47.1613 30.7708
" />
<path d="M48.0660 31.1041
L48.0660 30.4374
" />
<path d="M48.0660 30.6279
L48.1137 30.5327
" />
<path d="M48.1137 30.5327
L48.1613 30.4851
" />
<path d="M48.1613 30.4851
L48.2565 30.4374
" />
<path d="M48.2565 30.4374
L48.3518 30.4374
" />
</g><text x="83.9203" y="31.1493"
textLength="10.5833" font-size="1.3333" lengthAdjust="spacingAndGlyphs"
text-anchor="middle" opacity="0">MX_SW_solder</text>
<g class="stroked-text"><desc>MX_SW_solder</desc>
<path d="M78.9918 31.1041
L78.9918 30.1041
" />
<path d="M78.9918 30.1041
L79.3251 30.8184
" />
<path d="M79.3251 30.8184
L79.6584 30.1041
" />
<path d="M79.6584 30.1041
L79.6584 31.1041
" />
<path d="M80.0394 30.1041
L80.7060 31.1041
" />
<path d="M80.7060 30.1041
L80.0394 31.1041
" />
<path d="M80.8489 31.1993
L81.6108 31.1993
" />
<path d="M81.8013 31.0565
L81.9441 31.1041
" />
<path d="M81.9441 31.1041
L82.1822 31.1041
" />
<path d="M82.1822 31.1041
L82.2775 31.0565
" />
<path d="M82.2775 31.0565
L82.3251 31.0089
" />
<path d="M82.3251 31.0089
L82.3727 30.9136
" />
<path d="M82.3727 30.9136
L82.3727 30.8184
" />
<path d="M82.3727 30.8184
L82.3251 30.7231
" />
<path d="M82.3251 30.7231
L82.2775 30.6755
" />
<path d="M82.2775 30.6755
L82.1822 30.6279
" />
<path d="M82.1822 30.6279
L81.9918 30.5803
" />
<path d="M81.9918 30.5803
L81.8965 30.5327
" />
<path d="M81.8965 30.5327
L81.8489 30.4851
" />
<path d="M81.8489 30.4851
L81.8013 30.3898
" />
<path d="M81.8013 30.3898
L81.8013 30.2946
" />
<path d="M81.8013 30.2946
L81.8489 30.1993
" />
<path d="M81.8489 30.1993
L81.8965 30.1517
" />
<path d="M81.8965 30.1517
L81.9918 30.1041
" />
<path d="M81.9918 30.1041
L82.2299 30.1041
" />
<path d="M82.2299 30.1041
L82.3727 30.1517
" />
<path d="M82.7060 30.1041
L82.9441 31.1041
" />
<path d="M82.9441 31.1041
L83.1346 30.3898
" />
<path d="M83.1346 30.3898
L83.3251 31.1041
" />
<path d="M83.3251 31.1041
L83.5632 30.1041
" />
<path d="M83.7060 31.1993
L84.4680 31.1993
" />
<path d="M84.6584 31.0565
L84.7537 31.1041
" />
<path d="M84.7537 31.1041
L84.9441 31.1041
" />
<path d="M84.9441 31.1041
L85.0394 31.0565
" />
<path d="M85.0394 31.0565
L85.0870 30.9612
" />
<path d="M85.0870 30.9612
L85.0870 30.9136
" />
<path d="M85.0870 30.9136
L85.0394 30.8184
" />
<path d="M85.0394 30.8184
L84.9441 30.7708
" />
<path d="M84.9441 30.7708
L84.8013 30.7708
" />
<path d="M84.8013 30.7708
L84.7060 30.7231
" />
<path d="M84.7060 30.7231
L84.6584 30.6279
" />
<path d="M84.6584 30.6279
L84.6584 30.5803
" />
<path d="M84.6584 30.5803
L84.7060 30.4851
" />
<path d="M84.7060 30.4851
L84.8013 30.4374
" />
<path d="M84.8013 30.4374
L84.9441 30.4374
" />
<path d="M84.9441 30.4374
L85.0394 30.4851
" />
<path d="M85.6584 31.1041
L85.5632 31.0565
" />
<path d="M85.5632 31.0565
L85.5156 31.0089
" />
<path d="M85.5156 31.0089
L85.4680 30.9136
" />
<path d="M85.4680 30.9136
L85.4680 30.6279
" />
<path d="M85.4680 30.6279
L85.5156 30.5327
" />
<path d="M85.5156 30.5327
L85.5632 30.4851
" />
<path d="M85.5632 30.4851
L85.6584 30.4374
" />
<path d="M85.6584 30.4374
L85.8013 30.4374
" />
<path d="M85.8013 30.4374
L85.8965 30.4851
" />
<path d="M85.8965 30.4851
L85.9441 30.5327
" />
<path d="M85.9441 30.5327
L85.9918 30.6279
" />
<path d="M85.9918 30.6279
L85.9918 30.9136
" />
<path d="M85.9918 30.9136
L85.9441 31.0089
" />
<path d="M85.9441 31.0089
L85.8965 31.0565
" />
<path d="M85.8965 31.0565
L85.8013 31.1041
" />
<path d="M85.8013 31.1041
L85.6584 31.1041
" />
<path d="M86.5632 31.1041
L86.4680 31.0565
" />
<path d="M86.4680 31.0565
L86.4203 30.9612
" />
<path d="M86.4203 30.9612
L86.4203 30.1041
" />
<path d="M87.3727 31.1041
L87.3727 30.1041
" />
<path d="M87.3727 31.0565
L87.2775 31.1041
" />
<path d="M87.2775 31.1041
L87.0870 31.1041
" />
<path d="M87.0870 31.1041
L86.9918 31.0565
" />
<path d="M86.9918 31.0565
L86.9441 31.0089
" />
<path d="M86.9441 31.0089
L86.8965 30.9136
" />
<path d="M86.8965 30.9136
L86.8965 30.6279
" />
<path d="M86.8965 30.6279
L86.9441 30.5327
" />
<path d="M86.9441 30.5327
L86.9918 30.4851
" />
<path d="M86.9918 30.4851
L87.0870 30.4374
" />
<path d="M87.0870 30.4374
L87.2775 30.4374
" />
<path d="M87.2775 30.4374
L87.3727 30.4851
" />
<path d="M88.2299 31.0565
L88.1346 31.1041
" />
<path d="M88.1346 31.1041
L87.9441 31.1041
" />
<path d="M87.9441 31.1041
L87.8489 31.0565
" />
<path d="M87.8489 31.0565
L87.8013 30.9612
" />
<path d="M87.8013 30.9612
L87.8013 30.5803
" />
<path d="M87.8013 30.5803
L87.8489 30.4851
" />
<path d="M87.8489 30.4851
L87.9441 30.4374
" />
<path d="M87.9441 30.4374
L88.1346 30.4374
" />
<path d="M88.1346 30.4374
L88.2299 30.4851
" />
<path d="M88.2299 30.4851
L88.2775 30.5803
" />
<path d="M88.2775 30.5803
L88.2775 30.6755
" />
<path d="M88.2775 30.6755
L87.8013 30.7708
" />
<path d="M88.7060 31.1041
L88.7060 30.4374
" />
<path d="M88.7060 30.6279
L88.7537 30.5327
" />
<path d="M88.7537 30.5327
L88.8013 30.4851
" />
<path d="M88.8013 30.4851
L88.8965 30.4374
" />
<path d="M88.8965 30.4374
L88.9918 30.4374
" />
</g><text x="104.2403" y="10.8293"
textLength="10.5833" font-size="1.3333" lengthAdjust="spacingAndGlyphs"
text-anchor="middle" opacity="0">MX_SW_solder</text>
<g class="stroked-text"><desc>MX_SW_solder</desc>
<path d="M99.3118 10.7841
L99.3118 9.7841
" />
<path d="M99.3118 9.7841
L99.6451 10.4984
" />
<path d="M99.6451 10.4984
L99.9784 9.7841
" />
<path d="M99.9784 9.7841
L99.9784 10.7841
" />
<path d="M100.3594 9.7841
L101.0260 10.7841
" />
<path d="M101.0260 9.7841
L100.3594 10.7841
" />
<path d="M101.1689 10.8793
L101.9308 10.8793
" />
<path d="M102.1213 10.7365
L102.2641 10.7841
" />
<path d="M102.2641 10.7841
L102.5022 10.7841
" />
<path d="M102.5022 10.7841
L102.5975 10.7365
" />
<path d="M102.5975 10.7365
L102.6451 10.6889
" />
<path d="M102.6451 10.6889
L102.6927 10.5936
" />
<path d="M102.6927 10.5936
L102.6927 10.4984
" />
<path d="M102.6927 10.4984
L102.6451 10.4031
" />
<path d="M102.6451 10.4031
L102.5975 10.3555
" />
<path d="M102.5975 10.3555
L102.5022 10.3079
" />
<path d="M102.5022 10.3079
L102.3118 10.2603
" />
<path d="M102.3118 10.2603
L102.2165 10.2127
" />
<path d="M102.2165 10.2127
L102.1689 10.1651
" />
<path d="M102.1689 10.1651
L102.1213 10.0698
" />
<path d="M102.1213 10.0698
L102.1213 9.9746
" />
<path d="M102.1213 9.9746
L102.1689 9.8793
" />
<path d="M102.1689 9.8793
L102.2165 9.8317
" />
<path d="M102.2165 9.8317
L102.3118 9.7841
" />
<path d="M102.3118 9.7841
L102.5499 9.7841
" />
<path d="M102.5499 9.7841
L102.6927 9.8317
" />
<path d="M103.0260 9.7841
L103.2641 10.7841
" />
<path d="M103.2641 10.7841
L103.4546 10.0698
" />
<path d="M103.4546 10.0698
L103.6451 10.7841
" />
<path d="M103.6451 10.7841
L103.8832 9.7841
" />
<path d="M104.0260 10.8793
L104.7879 10.8793
" />
<path d="M104.9784 10.7365
L105.0737 10.7841
" />
<path d="M105.0737 10.7841
L105.2641 10.7841
" />
<path d="M105.2641 10.7841
L105.3594 10.7365
" />
<path d="M105.3594 10.7365
L105.4070 10.6412
" />
<path d="M105.4070 10.6412
L105.4070 10.5936
" />
<path d="M105.4070 10.5936
L105.3594 10.4984
" />
<path d="M105.3594 10.4984
L105.2641 10.4508
" />
<path d="M105.2641 10.4508
L105.1213 10.4508
" />
<path d="M105.1213 10.4508
L105.0260 10.4031
" />
<path d="M105.0260 10.4031
L104.9784 10.3079
" />
<path d="M104.9784 10.3079
L104.9784 10.2603
" />
<path d="M104.9784 10.2603
L105.0260 10.1651
" />
<path d="M105.0260 10.1651
L105.1213 10.1174
" />
<path d="M105.1213 10.1174
L105.2641 10.1174
" />
<path d="M105.2641 10.1174
L105.3594 10.1651
" />
<path d="M105.9784 10.7841
L105.8832 10.7365
" />
<path d="M105.8832 10.7365
L105.8356 10.6889
" />
<path d="M105.8356 10.6889
L105.7880 10.5936
" />
<path d="M105.7880 10.5936
L105.7880 10.3079
" />
<path d="M105.7880 10.3079
L105.8356 10.2127
" />
<path d="M105.8356 10.2127
L105.8832 10.1651
" />
<path d="M105.8832 10.1651
L105.9784 10.1174
" />
<path d="M105.9784 10.1174
L106.1213 10.1174
" />
<path d="M106.1213 10.1174
L106.2165 10.1651
" />
<path d="M106.2165 10.1651
L106.2641 10.2127
" />
<path d="M106.2641 10.2127
L106.3118 10.3079
" />
<path d="M106.3118 10.3079
L106.3118 10.5936
" />
<path d="M106.3118 10.5936
L106.2641 10.6889
" />
<path d="M106.2641 10.6889
L106.2165 10.7365
" />
<path d="M106.2165 10.7365
L106.1213 10.7841
" />
<path d="M106.1213 10.7841
L105.9784 10.7841
" />
<path d="M106.8832 10.7841
L106.7880 10.7365
" />
<path d="M106.7880 10.7365
L106.7403 10.6412
" />
<path d="M106.7403 10.6412
L106.7403 9.7841
" />
<path d="M107.6927 10.7841
L107.6927 9.7841
" />
<path d="M107.6927 10.7365
L107.5975 10.7841
" />
<path d="M107.5975 10.7841
L107.4070 10.7841
" />
<path d="M107.4070 10.7841
L107.3118 10.7365
" />
<path d="M107.3118 10.7365
L107.2641 10.6889
" />
<path d="M107.2641 10.6889
L107.2165 10.5936
" />
<path d="M107.2165 10.5936
L107.2165 10.3079
" />
<path d="M107.2165 10.3079
L107.2641 10.2127
" />
<path d="M107.2641 10.2127
L107.3118 10.1651
" />
<path d="M107.3118 10.1651
L107.4070 10.1174
" />
<path d="M107.4070 10.1174
L107.5975 10.1174
" />
<path d="M107.5975 10.1174
L107.6927 10.1651
" />
<path d="M108.5499 10.7365
L108.4546 10.7841
" />
<path d="M108.4546 10.7841
L108.2641 10.7841
" />
<path d="M108.2641 10.7841
L108.1689 10.7365
" />
<path d="M108.1689 10.7365
L108.1213 10.6412
" />
<path d="M108.1213 10.6412
L108.1213 10.2603
" />
<path d="M108.1213 10.2603
L108.1689 10.1651
" />
<path d="M108.1689 10.1651
L108.2641 10.1174
" />
<path d="M108.2641 10.1174
L108.4546 10.1174
" />
<path d="M108.4546 10.1174
L108.5499 10.1651
" />
<path d="M108.5499 10.1651
L108.5975 10.2603
" />
<path d="M108.5975 10.2603
L108.5975 10.3555
" />
<path d="M108.5975 10.3555
L108.1213 10.4508
" />
<path d="M109.0260 10.7841
L109.0260 10.1174
" />
<path d="M109.0260 10.3079
L109.0737 10.2127
" />
<path d="M109.0737 10.2127
L109.1213 10.1651
" />
<path d="M109.1213 10.1651
L109.2165 10.1174
" />
<path d="M109.2165 10.1174
L109.3118 10.1174
" />
</g><text x="63.6003" y="71.7893"
textLength="10.5833" font-size="1.3333" lengthAdjust="spacingAndGlyphs"
text-anchor="middle" opacity="0">MX_SW_solder</text>
<g class="stroked-text"><desc>MX_SW_solder</desc>
<path d="M58.6718 71.7441
L58.6718 70.7441
" />
<path d="M58.6718 70.7441
L59.0051 71.4584
" />
<path d="M59.0051 71.4584
L59.3384 70.7441
" />
<path d="M59.3384 70.7441
L59.3384 71.7441
" />
<path d="M59.7194 70.7441
L60.3860 71.7441
" />
<path d="M60.3860 70.7441
L59.7194 71.7441
" />
<path d="M60.5289 71.8393
L61.2908 71.8393
" />
<path d="M61.4813 71.6965
L61.6241 71.7441
" />
<path d="M61.6241 71.7441
L61.8622 71.7441
" />
<path d="M61.8622 71.7441
L61.9575 71.6965
" />
<path d="M61.9575 71.6965
L62.0051 71.6489
" />
<path d="M62.0051 71.6489
L62.0527 71.5536
" />
<path d="M62.0527 71.5536
L62.0527 71.4584
" />
<path d="M62.0527 71.4584
L62.0051 71.3631
" />
<path d="M62.0051 71.3631
L61.9575 71.3155
" />
<path d="M61.9575 71.3155
L61.8622 71.2679
" />
<path d="M61.8622 71.2679
L61.6718 71.2203
" />
<path d="M61.6718 71.2203
L61.5765 71.1727
" />
<path d="M61.5765 71.1727
L61.5289 71.1251
" />
<path d="M61.5289 71.1251
L61.4813 71.0298
" />
<path d="M61.4813 71.0298
L61.4813 70.9346
" />
<path d="M61.4813 70.9346
L61.5289 70.8393
" />
<path d="M61.5289 70.8393
L61.5765 70.7917
" />
<path d="M61.5765 70.7917
L61.6718 70.7441
" />
<path d="M61.6718 70.7441
L61.9099 70.7441
" />
<path d="M61.9099 70.7441
L62.0527 70.7917
" />
<path d="M62.3860 70.7441
L62.6241 71.7441
" />
<path d="M62.6241 71.7441
L62.8146 71.0298
" />
<path d="M62.8146 71.0298
L63.0051 71.7441
" />
<path d="M63.0051 71.7441
L63.2432 70.7441
" />
<path d="M63.3860 71.8393
L64.1479 71.8393
" />
<path d="M64.3384 71.6965
L64.4337 71.7441
" />
<path d="M64.4337 71.7441
L64.6241 71.7441
" />
<path d="M64.6241 71.7441
L64.7194 71.6965
" />
<path d="M64.7194 71.6965
L64.7670 71.6012
" />
<path d="M64.7670 71.6012
L64.7670 71.5536
" />
<path d="M64.7670 71.5536
L64.7194 71.4584
" />
<path d="M64.7194 71.4584
L64.6241 71.4108
" />
<path d="M64.6241 71.4108
L64.4813 71.4108
" />
<path d="M64.4813 71.4108
L64.3860 71.3631
" />
<path d="M64.3860 71.3631
L64.3384 71.2679
" />
<path d="M64.3384 71.2679
L64.3384 71.2203
" />
<path d="M64.3384 71.2203
L64.3860 71.1251
" />
<path d="M64.3860 71.1251
L64.4813 71.0774
" />
<path d="M64.4813 71.0774
L64.6241 71.0774
" />
<path d="M64.6241 71.0774
L64.7194 71.1251
" />
<path d="M65.3384 71.7441
L65.2432 71.6965
" />
<path d="M65.2432 71.6965
L65.1956 71.6489
" />
<path d="M65.1956 71.6489
L65.1480 71.5536
" />
<path d="M65.1480 71.5536
L65.1480 71.2679
" />
<path d="M65.1480 71.2679
L65.1956 71.1727
" />
<path d="M65.1956 71.1727
L65.2432 71.1251
" />
<path d="M65.2432 71.1251
L65.3384 71.0774
" />
<path d="M65.3384 71.0774
L65.4813 71.0774
" />
<path d="M65.4813 71.0774
L65.5765 71.1251
" />
<path d="M65.5765 71.1251
L65.6241 71.1727
" />
<path d="M65.6241 71.1727
L65.6718 71.2679
" />
<path d="M65.6718 71.2679
L65.6718 71.5536
" />
<path d="M65.6718 71.5536
L65.6241 71.6489
" />
<path d="M65.6241 71.6489
L65.5765 71.6965
" />
<path d="M65.5765 71.6965
L65.4813 71.7441
" />
<path d="M65.4813 71.7441
L65.3384 71.7441
" />
<path d="M66.2432 71.7441
L66.1480 71.6965
" />
<path d="M66.1480 71.6965
L66.1003 71.6012
" />
<path d="M66.1003 71.6012
L66.1003 70.7441
" />
<path d="M67.0527 71.7441
L67.0527 70.7441
" />
<path d="M67.0527 71.6965
L66.9575 71.7441
" />
<path d="M66.9575 71.7441
L66.7670 71.7441
" />
<path d="M66.7670 71.7441
L66.6718 71.6965
" />
<path d="M66.6718 71.6965
L66.6241 71.6489
" />
<path d="M66.6241 71.6489
L66.5765 71.5536
" />
<path d="M66.5765 71.5536
L66.5765 71.2679
" />
<path d="M66.5765 71.2679
L66.6241 71.1727
" />
<path d="M66.6241 71.1727
L66.6718 71.1251
" />
<path d="M66.6718 71.1251
L66.7670 71.0774
" />
<path d="M66.7670 71.0774
L66.9575 71.0774
" />
<path d="M66.9575 71.0774
L67.0527 71.1251
" />
<path d="M67.9099 71.6965
L67.8146 71.7441
" />
<path d="M67.8146 71.7441
L67.6241 71.7441
" />
<path d="M67.6241 71.7441
L67.5289 71.6965
" />
<path d="M67.5289 71.6965
L67.4813 71.6012
" />
<path d="M67.4813 71.6012
L67.4813 71.2203
" />
<path d="M67.4813 71.2203
L67.5289 71.1251
" />
<path d="M67.5289 71.1251
L67.6241 71.0774
" />
<path d="M67.6241 71.0774
L67.8146 71.0774
" />
<path d="M67.8146 71.0774
L67.9099 71.1251
" />
<path d="M67.9099 71.1251
L67.9575 71.2203
" />
<path d="M67.9575 71.2203
L67.9575 71.3155
" />
<path d="M67.9575 71.3155
L67.4813 71.4108
" />
<path d="M68.3860 71.7441
L68.3860 71.0774
" />
<path d="M68.3860 71.2679
L68.4337 71.1727
" />
<path d="M68.4337 71.1727
L68.4813 71.1251
" />
<path d="M68.4813 71.1251
L68.5765 71.0774
" />
<path d="M68.5765 71.0774
L68.6718 71.0774
" />
</g><text x="63.6003" y="10.8293"
textLength="10.5833" font-size="1.3333" lengthAdjust="spacingAndGlyphs"
text-anchor="middle" opacity="0">MX_SW_solder</text>
<g class="stroked-text"><desc>MX_SW_solder</desc>
<path d="M58.6718 10.7841
L58.6718 9.7841
" />
<path d="M58.6718 9.7841
L59.0051 10.4984
" />
<path d="M59.0051 10.4984
L59.3384 9.7841
" />
<path d="M59.3384 9.7841
L59.3384 10.7841
" />
<path d="M59.7194 9.7841
L60.3860 10.7841
" />
<path d="M60.3860 9.7841
L59.7194 10.7841
" />
<path d="M60.5289 10.8793
L61.2908 10.8793
" />
<path d="M61.4813 10.7365
L61.6241 10.7841
" />
<path d="M61.6241 10.7841
L61.8622 10.7841
" />
<path d="M61.8622 10.7841
L61.9575 10.7365
" />
<path d="M61.9575 10.7365
L62.0051 10.6889
" />
<path d="M62.0051 10.6889
L62.0527 10.5936
" />
<path d="M62.0527 10.5936
L62.0527 10.4984
" />
<path d="M62.0527 10.4984
L62.0051 10.4031
" />
<path d="M62.0051 10.4031
L61.9575 10.3555
" />
<path d="M61.9575 10.3555
L61.8622 10.3079
" />
<path d="M61.8622 10.3079
L61.6718 10.2603
" />
<path d="M61.6718 10.2603
L61.5765 10.2127
" />
<path d="M61.5765 10.2127
L61.5289 10.1651
" />
<path d="M61.5289 10.1651
L61.4813 10.0698
" />
<path d="M61.4813 10.0698
L61.4813 9.9746
" />
<path d="M61.4813 9.9746
L61.5289 9.8793
" />
<path d="M61.5289 9.8793
L61.5765 9.8317
" />
<path d="M61.5765 9.8317
L61.6718 9.7841
" />
<path d="M61.6718 9.7841
L61.9099 9.7841
" />
<path d="M61.9099 9.7841
L62.0527 9.8317
" />
<path d="M62.3860 9.7841
L62.6241 10.7841
" />
<path d="M62.6241 10.7841
L62.8146 10.0698
" />
<path d="M62.8146 10.0698
L63.0051 10.7841
" />
<path d="M63.0051 10.7841
L63.2432 9.7841
" />
<path d="M63.3860 10.8793
L64.1479 10.8793
" />
<path d="M64.3384 10.7365
L64.4337 10.7841
" />
<path d="M64.4337 10.7841
L64.6241 10.7841
" />
<path d="M64.6241 10.7841
L64.7194 10.7365
" />
<path d="M64.7194 10.7365
L64.7670 10.6412
" />
<path d="M64.7670 10.6412
L64.7670 10.5936
" />
<path d="M64.7670 10.5936
L64.7194 10.4984
" />
<path d="M64.7194 10.4984
L64.6241 10.4508
" />
<path d="M64.6241 10.4508
L64.4813 10.4508
" />
<path d="M64.4813 10.4508
L64.3860 10.4031
" />
<path d="M64.3860 10.4031
L64.3384 10.3079
" />
<path d="M64.3384 10.3079
L64.3384 10.2603
" />
<path d="M64.3384 10.2603
L64.3860 10.1651
" />
<path d="M64.3860 10.1651
L64.4813 10.1174
" />
<path d="M64.4813 10.1174
L64.6241 10.1174
" />
<path d="M64.6241 10.1174
L64.7194 10.1651
" />
<path d="M65.3384 10.7841
L65.2432 10.7365
" />
<path d="M65.2432 10.7365
L65.1956 10.6889
" />
<path d="M65.1956 10.6889
L65.1480 10.5936
" />
<path d="M65.1480 10.5936
L65.1480 10.3079
" />
<path d="M65.1480 10.3079
L65.1956 10.2127
" />
<path d="M65.1956 10.2127
L65.2432 10.1651
" />
<path d="M65.2432 10.1651
L65.3384 10.1174
" />
<path d="M65.3384 10.1174
L65.4813 10.1174
" />
<path d="M65.4813 10.1174
L65.5765 10.1651
" />
<path d="M65.5765 10.1651
L65.6241 10.2127
" />
<path d="M65.6241 10.2127
L65.6718 10.3079
" />
<path d="M65.6718 10.3079
L65.6718 10.5936
" />
<path d="M65.6718 10.5936
L65.6241 10.6889
" />
<path d="M65.6241 10.6889
L65.5765 10.7365
" />
<path d="M65.5765 10.7365
L65.4813 10.7841
" />
<path d="M65.4813 10.7841
L65.3384 10.7841
" />
<path d="M66.2432 10.7841
L66.1480 10.7365
" />
<path d="M66.1480 10.7365
L66.1003 10.6412
" />
<path d="M66.1003 10.6412
L66.1003 9.7841
" />
<path d="M67.0527 10.7841
L67.0527 9.7841
" />
<path d="M67.0527 10.7365
L66.9575 10.7841
" />
<path d="M66.9575 10.7841
L66.7670 10.7841
" />
<path d="M66.7670 10.7841
L66.6718 10.7365
" />
<path d="M66.6718 10.7365
L66.6241 10.6889
" />
<path d="M66.6241 10.6889
L66.5765 10.5936
" />
<path d="M66.5765 10.5936
L66.5765 10.3079
" />
<path d="M66.5765 10.3079
L66.6241 10.2127
" />
<path d="M66.6241 10.2127
L66.6718 10.1651
" />
<path d="M66.6718 10.1651
L66.7670 10.1174
" />
<path d="M66.7670 10.1174
L66.9575 10.1174
" />
<path d="M66.9575 10.1174
L67.0527 10.1651
" />
<path d="M67.9099 10.7365
L67.8146 10.7841
" />
<path d="M67.8146 10.7841
L67.6241 10.7841
" />
<path d="M67.6241 10.7841
L67.5289 10.7365
" />
<path d="M67.5289 10.7365
L67.4813 10.6412
" />
<path d="M67.4813 10.6412
L67.4813 10.2603
" />
<path d="M67.4813 10.2603
L67.5289 10.1651
" />
<path d="M67.5289 10.1651
L67.6241 10.1174
" />
<path d="M67.6241 10.1174
L67.8146 10.1174
" />
<path d="M67.8146 10.1174
L67.9099 10.1651
" />
<path d="M67.9099 10.1651
L67.9575 10.2603
" />
<path d="M67.9575 10.2603
L67.9575 10.3555
" />
<path d="M67.9575 10.3555
L67.4813 10.4508
" />
<path d="M68.3860 10.7841
L68.3860 10.1174
" />
<path d="M68.3860 10.3079
L68.4337 10.2127
" />
<path d="M68.4337 10.2127
L68.4813 10.1651
" />
<path d="M68.4813 10.1651
L68.5765 10.1174
" />
<path d="M68.5765 10.1174
L68.6718 10.1174
" />
</g><text x="43.2803" y="51.4693"
textLength="10.5833" font-size="1.3333" lengthAdjust="spacingAndGlyphs"
text-anchor="middle" opacity="0">MX_SW_solder</text>
<g class="stroked-text"><desc>MX_SW_solder</desc>
<path d="M38.3518 51.4241
L38.3518 50.4241
" />
<path d="M38.3518 50.4241
L38.6851 51.1384
" />
<path d="M38.6851 51.1384
L39.0184 50.4241
" />
<path d="M39.0184 50.4241
L39.0184 51.4241
" />
<path d="M39.3994 50.4241
L40.0660 51.4241
" />
<path d="M40.0660 50.4241
L39.3994 51.4241
" />
<path d="M40.2089 51.5193
L40.9708 51.5193
" />
<path d="M41.1613 51.3765
L41.3041 51.4241
" />
<path d="M41.3041 51.4241
L41.5422 51.4241
" />
<path d="M41.5422 51.4241
L41.6375 51.3765
" />
<path d="M41.6375 51.3765
L41.6851 51.3289
" />
<path d="M41.6851 51.3289
L41.7327 51.2336
" />
<path d="M41.7327 51.2336
L41.7327 51.1384
" />
<path d="M41.7327 51.1384
L41.6851 51.0431
" />
<path d="M41.6851 51.0431
L41.6375 50.9955
" />
<path d="M41.6375 50.9955
L41.5422 50.9479
" />
<path d="M41.5422 50.9479
L41.3518 50.9003
" />
<path d="M41.3518 50.9003
L41.2565 50.8527
" />
<path d="M41.2565 50.8527
L41.2089 50.8051
" />
<path d="M41.2089 50.8051
L41.1613 50.7098
" />
<path d="M41.1613 50.7098
L41.1613 50.6146
" />
<path d="M41.1613 50.6146
L41.2089 50.5193
" />
<path d="M41.2089 50.5193
L41.2565 50.4717
" />
<path d="M41.2565 50.4717
L41.3518 50.4241
" />
<path d="M41.3518 50.4241
L41.5899 50.4241
" />
<path d="M41.5899 50.4241
L41.7327 50.4717
" />
<path d="M42.0660 50.4241
L42.3041 51.4241
" />
<path d="M42.3041 51.4241
L42.4946 50.7098
" />
<path d="M42.4946 50.7098
L42.6851 51.4241
" />
<path d="M42.6851 51.4241
L42.9232 50.4241
" />
<path d="M43.0660 51.5193
L43.8280 51.5193
" />
<path d="M44.0184 51.3765
L44.1137 51.4241
" />
<path d="M44.1137 51.4241
L44.3041 51.4241
" />
<path d="M44.3041 51.4241
L44.3994 51.3765
" />
<path d="M44.3994 51.3765
L44.4470 51.2812
" />
<path d="M44.4470 51.2812
L44.4470 51.2336
" />
<path d="M44.4470 51.2336
L44.3994 51.1384
" />
<path d="M44.3994 51.1384
L44.3041 51.0908
" />
<path d="M44.3041 51.0908
L44.1613 51.0908
" />
<path d="M44.1613 51.0908
L44.0660 51.0431
" />
<path d="M44.0660 51.0431
L44.0184 50.9479
" />
<path d="M44.0184 50.9479
L44.0184 50.9003
" />
<path d="M44.0184 50.9003
L44.0660 50.8051
" />
<path d="M44.0660 50.8051
L44.1613 50.7574
" />
<path d="M44.1613 50.7574
L44.3041 50.7574
" />
<path d="M44.3041 50.7574
L44.3994 50.8051
" />
<path d="M45.0184 51.4241
L44.9232 51.3765
" />
<path d="M44.9232 51.3765
L44.8756 51.3289
" />
<path d="M44.8756 51.3289
L44.8280 51.2336
" />
<path d="M44.8280 51.2336
L44.8280 50.9479
" />
<path d="M44.8280 50.9479
L44.8756 50.8527
" />
<path d="M44.8756 50.8527
L44.9232 50.8051
" />
<path d="M44.9232 50.8051
L45.0184 50.7574
" />
<path d="M45.0184 50.7574
L45.1613 50.7574
" />
<path d="M45.1613 50.7574
L45.2565 50.8051
" />
<path d="M45.2565 50.8051
L45.3041 50.8527
" />
<path d="M45.3041 50.8527
L45.3518 50.9479
" />
<path d="M45.3518 50.9479
L45.3518 51.2336
" />
<path d="M45.3518 51.2336
L45.3041 51.3289
" />
<path d="M45.3041 51.3289
L45.2565 51.3765
" />
<path d="M45.2565 51.3765
L45.1613 51.4241
" />
<path d="M45.1613 51.4241
L45.0184 51.4241
" />
<path d="M45.9232 51.4241
L45.8280 51.3765
" />
<path d="M45.8280 51.3765
L45.7803 51.2812
" />
<path d="M45.7803 51.2812
L45.7803 50.4241
" />
<path d="M46.7327 51.4241
L46.7327 50.4241
" />
<path d="M46.7327 51.3765
L46.6375 51.4241
" />
<path d="M46.6375 51.4241
L46.4470 51.4241
" />
<path d="M46.4470 51.4241
L46.3518 51.3765
" />
<path d="M46.3518 51.3765
L46.3041 51.3289
" />
<path d="M46.3041 51.3289
L46.2565 51.2336
" />
<path d="M46.2565 51.2336
L46.2565 50.9479
" />
<path d="M46.2565 50.9479
L46.3041 50.8527
" />
<path d="M46.3041 50.8527
L46.3518 50.8051
" />
<path d="M46.3518 50.8051
L46.4470 50.7574
" />
<path d="M46.4470 50.7574
L46.6375 50.7574
" />
<path d="M46.6375 50.7574
L46.7327 50.8051
" />
<path d="M47.5899 51.3765
L47.4946 51.4241
" />
<path d="M47.4946 51.4241
L47.3041 51.4241
" />
<path d="M47.3041 51.4241
L47.2089 51.3765
" />
<path d="M47.2089 51.3765
L47.1613 51.2812
" />
<path d="M47.1613 51.2812
L47.1613 50.9003
" />
<path d="M47.1613 50.9003
L47.2089 50.8051
" />
<path d="M47.2089 50.8051
L47.3041 50.7574
" />
<path d="M47.3041 50.7574
L47.4946 50.7574
" />
<path d="M47.4946 50.7574
L47.5899 50.8051
" />
<path d="M47.5899 50.8051
L47.6375 50.9003
" />
<path d="M47.6375 50.9003
L47.6375 50.9955
" />
<path d="M47.6375 50.9955
L47.1613 51.0908
" />
<path d="M48.0660 51.4241
L48.0660 50.7574
" />
<path d="M48.0660 50.9479
L48.1137 50.8527
" />
<path d="M48.1137 50.8527
L48.1613 50.8051
" />
<path d="M48.1613 50.8051
L48.2565 50.7574
" />
<path d="M48.2565 50.7574
L48.3518 50.7574
" />
</g><text x="63.6003" y="31.1493"
textLength="10.5833" font-size="1.3333" lengthAdjust="spacingAndGlyphs"
text-anchor="middle" opacity="0">MX_SW_solder</text>
<g class="stroked-text"><desc>MX_SW_solder</desc>
<path d="M58.6718 31.1041
L58.6718 30.1041
" />
<path d="M58.6718 30.1041
L59.0051 30.8184
" />
<path d="M59.0051 30.8184
L59.3384 30.1041
" />
<path d="M59.3384 30.1041
L59.3384 31.1041
" />
<path d="M59.7194 30.1041
L60.3860 31.1041
" />
<path d="M60.3860 30.1041
L59.7194 31.1041
" />
<path d="M60.5289 31.1993
L61.2908 31.1993
" />
<path d="M61.4813 31.0565
L61.6241 31.1041
" />
<path d="M61.6241 31.1041
L61.8622 31.1041
" />
<path d="M61.8622 31.1041
L61.9575 31.0565
" />
<path d="M61.9575 31.0565
L62.0051 31.0089
" />
<path d="M62.0051 31.0089
L62.0527 30.9136
" />
<path d="M62.0527 30.9136
L62.0527 30.8184
" />
<path d="M62.0527 30.8184
L62.0051 30.7231
" />
<path d="M62.0051 30.7231
L61.9575 30.6755
" />
<path d="M61.9575 30.6755
L61.8622 30.6279
" />
<path d="M61.8622 30.6279
L61.6718 30.5803
" />
<path d="M61.6718 30.5803
L61.5765 30.5327
" />
<path d="M61.5765 30.5327
L61.5289 30.4851
" />
<path d="M61.5289 30.4851
L61.4813 30.3898
" />
<path d="M61.4813 30.3898
L61.4813 30.2946
" />
<path d="M61.4813 30.2946
L61.5289 30.1993
" />
<path d="M61.5289 30.1993
L61.5765 30.1517
" />
<path d="M61.5765 30.1517
L61.6718 30.1041
" />
<path d="M61.6718 30.1041
L61.9099 30.1041
" />
<path d="M61.9099 30.1041
L62.0527 30.1517
" />
<path d="M62.3860 30.1041
L62.6241 31.1041
" />
<path d="M62.6241 31.1041
L62.8146 30.3898
" />
<path d="M62.8146 30.3898
L63.0051 31.1041
" />
<path d="M63.0051 31.1041
L63.2432 30.1041
" />
<path d="M63.3860 31.1993
L64.1479 31.1993
" />
<path d="M64.3384 31.0565
L64.4337 31.1041
" />
<path d="M64.4337 31.1041
L64.6241 31.1041
" />
<path d="M64.6241 31.1041
L64.7194 31.0565
" />
<path d="M64.7194 31.0565
L64.7670 30.9612
" />
<path d="M64.7670 30.9612
L64.7670 30.9136
" />
<path d="M64.7670 30.9136
L64.7194 30.8184
" />
<path d="M64.7194 30.8184
L64.6241 30.7708
" />
<path d="M64.6241 30.7708
L64.4813 30.7708
" />
<path d="M64.4813 30.7708
L64.3860 30.7231
" />
<path d="M64.3860 30.7231
L64.3384 30.6279
" />
<path d="M64.3384 30.6279
L64.3384 30.5803
" />
<path d="M64.3384 30.5803
L64.3860 30.4851
" />
<path d="M64.3860 30.4851
L64.4813 30.4374
" />
<path d="M64.4813 30.4374
L64.6241 30.4374
" />
<path d="M64.6241 30.4374
L64.7194 30.4851
" />
<path d="M65.3384 31.1041
L65.2432 31.0565
" />
<path d="M65.2432 31.0565
L65.1956 31.0089
" />
<path d="M65.1956 31.0089
L65.1480 30.9136
" />
<path d="M65.1480 30.9136
L65.1480 30.6279
" />
<path d="M65.1480 30.6279
L65.1956 30.5327
" />
<path d="M65.1956 30.5327
L65.2432 30.4851
" />
<path d="M65.2432 30.4851
L65.3384 30.4374
" />
<path d="M65.3384 30.4374
L65.4813 30.4374
" />
<path d="M65.4813 30.4374
L65.5765 30.4851
" />
<path d="M65.5765 30.4851
L65.6241 30.5327
" />
<path d="M65.6241 30.5327
L65.6718 30.6279
" />
<path d="M65.6718 30.6279
L65.6718 30.9136
" />
<path d="M65.6718 30.9136
L65.6241 31.0089
" />
<path d="M65.6241 31.0089
L65.5765 31.0565
" />
<path d="M65.5765 31.0565
L65.4813 31.1041
" />
<path d="M65.4813 31.1041
L65.3384 31.1041
" />
<path d="M66.2432 31.1041
L66.1480 31.0565
" />
<path d="M66.1480 31.0565
L66.1003 30.9612
" />
<path d="M66.1003 30.9612
L66.1003 30.1041
" />
<path d="M67.0527 31.1041
L67.0527 30.1041
" />
<path d="M67.0527 31.0565
L66.9575 31.1041
" />
<path d="M66.9575 31.1041
L66.7670 31.1041
" />
<path d="M66.7670 31.1041
L66.6718 31.0565
" />
<path d="M66.6718 31.0565
L66.6241 31.0089
" />
<path d="M66.6241 31.0089
L66.5765 30.9136
" />
<path d="M66.5765 30.9136
L66.5765 30.6279
" />
<path d="M66.5765 30.6279
L66.6241 30.5327
" />
<path d="M66.6241 30.5327
L66.6718 30.4851
" />
<path d="M66.6718 30.4851
L66.7670 30.4374
" />
<path d="M66.7670 30.4374
L66.9575 30.4374
" />
<path d="M66.9575 30.4374
L67.0527 30.4851
" />
<path d="M67.9099 31.0565
L67.8146 31.1041
" />
<path d="M67.8146 31.1041
L67.6241 31.1041
" />
<path d="M67.6241 31.1041
L67.5289 31.0565
" />
<path d="M67.5289 31.0565
L67.4813 30.9612
" />
<path d="M67.4813 30.9612
L67.4813 30.5803
" />
<path d="M67.4813 30.5803
L67.5289 30.4851
" />
<path d="M67.5289 30.4851
L67.6241 30.4374
" />
<path d="M67.6241 30.4374
L67.8146 30.4374
" />
<path d="M67.8146 30.4374
L67.9099 30.4851
" />
<path d="M67.9099 30.4851
L67.9575 30.5803
" />
<path d="M67.9575 30.5803
L67.9575 30.6755
" />
<path d="M67.9575 30.6755
L67.4813 30.7708
" />
<path d="M68.3860 31.1041
L68.3860 30.4374
" />
<path d="M68.3860 30.6279
L68.4337 30.5327
" />
<path d="M68.4337 30.5327
L68.4813 30.4851
" />
<path d="M68.4813 30.4851
L68.5765 30.4374
" />
<path d="M68.5765 30.4374
L68.6718 30.4374
" />
</g><text x="104.2403" y="71.7893"
textLength="10.5833" font-size="1.3333" lengthAdjust="spacingAndGlyphs"
text-anchor="middle" opacity="0">MX_SW_solder</text>
<g class="stroked-text"><desc>MX_SW_solder</desc>
<path d="M99.3118 71.7441
L99.3118 70.7441
" />
<path d="M99.3118 70.7441
L99.6451 71.4584
" />
<path d="M99.6451 71.4584
L99.9784 70.7441
" />
<path d="M99.9784 70.7441
L99.9784 71.7441
" />
<path d="M100.3594 70.7441
L101.0260 71.7441
" />
<path d="M101.0260 70.7441
L100.3594 71.7441
" />
<path d="M101.1689 71.8393
L101.9308 71.8393
" />
<path d="M102.1213 71.6965
L102.2641 71.7441
" />
<path d="M102.2641 71.7441
L102.5022 71.7441
" />
<path d="M102.5022 71.7441
L102.5975 71.6965
" />
<path d="M102.5975 71.6965
L102.6451 71.6489
" />
<path d="M102.6451 71.6489
L102.6927 71.5536
" />
<path d="M102.6927 71.5536
L102.6927 71.4584
" />
<path d="M102.6927 71.4584
L102.6451 71.3631
" />
<path d="M102.6451 71.3631
L102.5975 71.3155
" />
<path d="M102.5975 71.3155
L102.5022 71.2679
" />
<path d="M102.5022 71.2679
L102.3118 71.2203
" />
<path d="M102.3118 71.2203
L102.2165 71.1727
" />
<path d="M102.2165 71.1727
L102.1689 71.1251
" />
<path d="M102.1689 71.1251
L102.1213 71.0298
" />
<path d="M102.1213 71.0298
L102.1213 70.9346
" />
<path d="M102.1213 70.9346
L102.1689 70.8393
" />
<path d="M102.1689 70.8393
L102.2165 70.7917
" />
<path d="M102.2165 70.7917
L102.3118 70.7441
" />
<path d="M102.3118 70.7441
L102.5499 70.7441
" />
<path d="M102.5499 70.7441
L102.6927 70.7917
" />
<path d="M103.0260 70.7441
L103.2641 71.7441
" />
<path d="M103.2641 71.7441
L103.4546 71.0298
" />
<path d="M103.4546 71.0298
L103.6451 71.7441
" />
<path d="M103.6451 71.7441
L103.8832 70.7441
" />
<path d="M104.0260 71.8393
L104.7879 71.8393
" />
<path d="M104.9784 71.6965
L105.0737 71.7441
" />
<path d="M105.0737 71.7441
L105.2641 71.7441
" />
<path d="M105.2641 71.7441
L105.3594 71.6965
" />
<path d="M105.3594 71.6965
L105.4070 71.6012
" />
<path d="M105.4070 71.6012
L105.4070 71.5536
" />
<path d="M105.4070 71.5536
L105.3594 71.4584
" />
<path d="M105.3594 71.4584
L105.2641 71.4108
" />
<path d="M105.2641 71.4108
L105.1213 71.4108
" />
<path d="M105.1213 71.4108
L105.0260 71.3631
" />
<path d="M105.0260 71.3631
L104.9784 71.2679
" />
<path d="M104.9784 71.2679
L104.9784 71.2203
" />
<path d="M104.9784 71.2203
L105.0260 71.1251
" />
<path d="M105.0260 71.1251
L105.1213 71.0774
" />
<path d="M105.1213 71.0774
L105.2641 71.0774
" />
<path d="M105.2641 71.0774
L105.3594 71.1251
" />
<path d="M105.9784 71.7441
L105.8832 71.6965
" />
<path d="M105.8832 71.6965
L105.8356 71.6489
" />
<path d="M105.8356 71.6489
L105.7880 71.5536
" />
<path d="M105.7880 71.5536
L105.7880 71.2679
" />
<path d="M105.7880 71.2679
L105.8356 71.1727
" />
<path d="M105.8356 71.1727
L105.8832 71.1251
" />
<path d="M105.8832 71.1251
L105.9784 71.0774
" />
<path d="M105.9784 71.0774
L106.1213 71.0774
" />
<path d="M106.1213 71.0774
L106.2165 71.1251
" />
<path d="M106.2165 71.1251
L106.2641 71.1727
" />
<path d="M106.2641 71.1727
L106.3118 71.2679
" />
<path d="M106.3118 71.2679
L106.3118 71.5536
" />
<path d="M106.3118 71.5536
L106.2641 71.6489
" />
<path d="M106.2641 71.6489
L106.2165 71.6965
" />
<path d="M106.2165 71.6965
L106.1213 71.7441
" />
<path d="M106.1213 71.7441
L105.9784 71.7441
" />
<path d="M106.8832 71.7441
L106.7880 71.6965
" />
<path d="M106.7880 71.6965
L106.7403 71.6012
" />
<path d="M106.7403 71.6012
L106.7403 70.7441
" />
<path d="M107.6927 71.7441
L107.6927 70.7441
" />
<path d="M107.6927 71.6965
L107.5975 71.7441
" />
<path d="M107.5975 71.7441
L107.4070 71.7441
" />
<path d="M107.4070 71.7441
L107.3118 71.6965
" />
<path d="M107.3118 71.6965
L107.2641 71.6489
" />
<path d="M107.2641 71.6489
L107.2165 71.5536
" />
<path d="M107.2165 71.5536
L107.2165 71.2679
" />
<path d="M107.2165 71.2679
L107.2641 71.1727
" />
<path d="M107.2641 71.1727
L107.3118 71.1251
" />
<path d="M107.3118 71.1251
L107.4070 71.0774
" />
<path d="M107.4070 71.0774
L107.5975 71.0774
" />
<path d="M107.5975 71.0774
L107.6927 71.1251
" />
<path d="M108.5499 71.6965
L108.4546 71.7441
" />
<path d="M108.4546 71.7441
L108.2641 71.7441
" />
<path d="M108.2641 71.7441
L108.1689 71.6965
" />
<path d="M108.1689 71.6965
L108.1213 71.6012
" />
<path d="M108.1213 71.6012
L108.1213 71.2203
" />
<path d="M108.1213 71.2203
L108.1689 71.1251
" />
<path d="M108.1689 71.1251
L108.2641 71.0774
" />
<path d="M108.2641 71.0774
L108.4546 71.0774
" />
<path d="M108.4546 71.0774
L108.5499 71.1251
" />
<path d="M108.5499 71.1251
L108.5975 71.2203
" />
<path d="M108.5975 71.2203
L108.5975 71.3155
" />
<path d="M108.5975 71.3155
L108.1213 71.4108
" />
<path d="M109.0260 71.7441
L109.0260 71.0774
" />
<path d="M109.0260 71.2679
L109.0737 71.1727
" />
<path d="M109.0737 71.1727
L109.1213 71.1251
" />
<path d="M109.1213 71.1251
L109.2165 71.0774
" />
<path d="M109.2165 71.0774
L109.3118 71.0774
" />
</g><text x="43.2803" y="10.8293"
textLength="10.5833" font-size="1.3333" lengthAdjust="spacingAndGlyphs"
text-anchor="middle" opacity="0">MX_SW_solder</text>
<g class="stroked-text"><desc>MX_SW_solder</desc>
<path d="M38.3518 10.7841
L38.3518 9.7841
" />
<path d="M38.3518 9.7841
L38.6851 10.4984
" />
<path d="M38.6851 10.4984
L39.0184 9.7841
" />
<path d="M39.0184 9.7841
L39.0184 10.7841
" />
<path d="M39.3994 9.7841
L40.0660 10.7841
" />
<path d="M40.0660 9.7841
L39.3994 10.7841
" />
<path d="M40.2089 10.8793
L40.9708 10.8793
" />
<path d="M41.1613 10.7365
L41.3041 10.7841
" />
<path d="M41.3041 10.7841
L41.5422 10.7841
" />
<path d="M41.5422 10.7841
L41.6375 10.7365
" />
<path d="M41.6375 10.7365
L41.6851 10.6889
" />
<path d="M41.6851 10.6889
L41.7327 10.5936
" />
<path d="M41.7327 10.5936
L41.7327 10.4984
" />
<path d="M41.7327 10.4984
L41.6851 10.4031
" />
<path d="M41.6851 10.4031
L41.6375 10.3555
" />
<path d="M41.6375 10.3555
L41.5422 10.3079
" />
<path d="M41.5422 10.3079
L41.3518 10.2603
" />
<path d="M41.3518 10.2603
L41.2565 10.2127
" />
<path d="M41.2565 10.2127
L41.2089 10.1651
" />
<path d="M41.2089 10.1651
L41.1613 10.0698
" />
<path d="M41.1613 10.0698
L41.1613 9.9746
" />
<path d="M41.1613 9.9746
L41.2089 9.8793
" />
<path d="M41.2089 9.8793
L41.2565 9.8317
" />
<path d="M41.2565 9.8317
L41.3518 9.7841
" />
<path d="M41.3518 9.7841
L41.5899 9.7841
" />
<path d="M41.5899 9.7841
L41.7327 9.8317
" />
<path d="M42.0660 9.7841
L42.3041 10.7841
" />
<path d="M42.3041 10.7841
L42.4946 10.0698
" />
<path d="M42.4946 10.0698
L42.6851 10.7841
" />
<path d="M42.6851 10.7841
L42.9232 9.7841
" />
<path d="M43.0660 10.8793
L43.8280 10.8793
" />
<path d="M44.0184 10.7365
L44.1137 10.7841
" />
<path d="M44.1137 10.7841
L44.3041 10.7841
" />
<path d="M44.3041 10.7841
L44.3994 10.7365
" />
<path d="M44.3994 10.7365
L44.4470 10.6412
" />
<path d="M44.4470 10.6412
L44.4470 10.5936
" />
<path d="M44.4470 10.5936
L44.3994 10.4984
" />
<path d="M44.3994 10.4984
L44.3041 10.4508
" />
<path d="M44.3041 10.4508
L44.1613 10.4508
" />
<path d="M44.1613 10.4508
L44.0660 10.4031
" />
<path d="M44.0660 10.4031
L44.0184 10.3079
" />
<path d="M44.0184 10.3079
L44.0184 10.2603
" />
<path d="M44.0184 10.2603
L44.0660 10.1651
" />
<path d="M44.0660 10.1651
L44.1613 10.1174
" />
<path d="M44.1613 10.1174
L44.3041 10.1174
" />
<path d="M44.3041 10.1174
L44.3994 10.1651
" />
<path d="M45.0184 10.7841
L44.9232 10.7365
" />
<path d="M44.9232 10.7365
L44.8756 10.6889
" />
<path d="M44.8756 10.6889
L44.8280 10.5936
" />
<path d="M44.8280 10.5936
L44.8280 10.3079
" />
<path d="M44.8280 10.3079
L44.8756 10.2127
" />
<path d="M44.8756 10.2127
L44.9232 10.1651
" />
<path d="M44.9232 10.1651
L45.0184 10.1174
" />
<path d="M45.0184 10.1174
L45.1613 10.1174
" />
<path d="M45.1613 10.1174
L45.2565 10.1651
" />
<path d="M45.2565 10.1651
L45.3041 10.2127
" />
<path d="M45.3041 10.2127
L45.3518 10.3079
" />
<path d="M45.3518 10.3079
L45.3518 10.5936
" />
<path d="M45.3518 10.5936
L45.3041 10.6889
" />
<path d="M45.3041 10.6889
L45.2565 10.7365
" />
<path d="M45.2565 10.7365
L45.1613 10.7841
" />
<path d="M45.1613 10.7841
L45.0184 10.7841
" />
<path d="M45.9232 10.7841
L45.8280 10.7365
" />
<path d="M45.8280 10.7365
L45.7803 10.6412
" />
<path d="M45.7803 10.6412
L45.7803 9.7841
" />
<path d="M46.7327 10.7841
L46.7327 9.7841
" />
<path d="M46.7327 10.7365
L46.6375 10.7841
" />
<path d="M46.6375 10.7841
L46.4470 10.7841
" />
<path d="M46.4470 10.7841
L46.3518 10.7365
" />
<path d="M46.3518 10.7365
L46.3041 10.6889
" />
<path d="M46.3041 10.6889
L46.2565 10.5936
" />
<path d="M46.2565 10.5936
L46.2565 10.3079
" />
<path d="M46.2565 10.3079
L46.3041 10.2127
" />
<path d="M46.3041 10.2127
L46.3518 10.1651
" />
<path d="M46.3518 10.1651
L46.4470 10.1174
" />
<path d="M46.4470 10.1174
L46.6375 10.1174
" />
<path d="M46.6375 10.1174
L46.7327 10.1651
" />
<path d="M47.5899 10.7365
L47.4946 10.7841
" />
<path d="M47.4946 10.7841
L47.3041 10.7841
" />
<path d="M47.3041 10.7841
L47.2089 10.7365
" />
<path d="M47.2089 10.7365
L47.1613 10.6412
" />
<path d="M47.1613 10.6412
L47.1613 10.2603
" />
<path d="M47.1613 10.2603
L47.2089 10.1651
" />
<path d="M47.2089 10.1651
L47.3041 10.1174
" />
<path d="M47.3041 10.1174
L47.4946 10.1174
" />
<path d="M47.4946 10.1174
L47.5899 10.1651
" />
<path d="M47.5899 10.1651
L47.6375 10.2603
" />
<path d="M47.6375 10.2603
L47.6375 10.3555
" />
<path d="M47.6375 10.3555
L47.1613 10.4508
" />
<path d="M48.0660 10.7841
L48.0660 10.1174
" />
<path d="M48.0660 10.3079
L48.1137 10.2127
" />
<path d="M48.1137 10.2127
L48.1613 10.1651
" />
<path d="M48.1613 10.1651
L48.2565 10.1174
" />
<path d="M48.2565 10.1174
L48.3518 10.1174
" />
</g><text x="63.6003" y="51.4693"
textLength="10.5833" font-size="1.3333" lengthAdjust="spacingAndGlyphs"
text-anchor="middle" opacity="0">MX_SW_solder</text>
<g class="stroked-text"><desc>MX_SW_solder</desc>
<path d="M58.6718 51.4241
L58.6718 50.4241
" />
<path d="M58.6718 50.4241
L59.0051 51.1384
" />
<path d="M59.0051 51.1384
L59.3384 50.4241
" />
<path d="M59.3384 50.4241
L59.3384 51.4241
" />
<path d="M59.7194 50.4241
L60.3860 51.4241
" />
<path d="M60.3860 50.4241
L59.7194 51.4241
" />
<path d="M60.5289 51.5193
L61.2908 51.5193
" />
<path d="M61.4813 51.3765
L61.6241 51.4241
" />
<path d="M61.6241 51.4241
L61.8622 51.4241
" />
<path d="M61.8622 51.4241
L61.9575 51.3765
" />
<path d="M61.9575 51.3765
L62.0051 51.3289
" />
<path d="M62.0051 51.3289
L62.0527 51.2336
" />
<path d="M62.0527 51.2336
L62.0527 51.1384
" />
<path d="M62.0527 51.1384
L62.0051 51.0431
" />
<path d="M62.0051 51.0431
L61.9575 50.9955
" />
<path d="M61.9575 50.9955
L61.8622 50.9479
" />
<path d="M61.8622 50.9479
L61.6718 50.9003
" />
<path d="M61.6718 50.9003
L61.5765 50.8527
" />
<path d="M61.5765 50.8527
L61.5289 50.8051
" />
<path d="M61.5289 50.8051
L61.4813 50.7098
" />
<path d="M61.4813 50.7098
L61.4813 50.6146
" />
<path d="M61.4813 50.6146
L61.5289 50.5193
" />
<path d="M61.5289 50.5193
L61.5765 50.4717
" />
<path d="M61.5765 50.4717
L61.6718 50.4241
" />
<path d="M61.6718 50.4241
L61.9099 50.4241
" />
<path d="M61.9099 50.4241
L62.0527 50.4717
" />
<path d="M62.3860 50.4241
L62.6241 51.4241
" />
<path d="M62.6241 51.4241
L62.8146 50.7098
" />
<path d="M62.8146 50.7098
L63.0051 51.4241
" />
<path d="M63.0051 51.4241
L63.2432 50.4241
" />
<path d="M63.3860 51.5193
L64.1479 51.5193
" />
<path d="M64.3384 51.3765
L64.4337 51.4241
" />
<path d="M64.4337 51.4241
L64.6241 51.4241
" />
<path d="M64.6241 51.4241
L64.7194 51.3765
" />
<path d="M64.7194 51.3765
L64.7670 51.2812
" />
<path d="M64.7670 51.2812
L64.7670 51.2336
" />
<path d="M64.7670 51.2336
L64.7194 51.1384
" />
<path d="M64.7194 51.1384
L64.6241 51.0908
" />
<path d="M64.6241 51.0908
L64.4813 51.0908
" />
<path d="M64.4813 51.0908
L64.3860 51.0431
" />
<path d="M64.3860 51.0431
L64.3384 50.9479
" />
<path d="M64.3384 50.9479
L64.3384 50.9003
" />
<path d="M64.3384 50.9003
L64.3860 50.8051
" />
<path d="M64.3860 50.8051
L64.4813 50.7574
" />
<path d="M64.4813 50.7574
L64.6241 50.7574
" />
<path d="M64.6241 50.7574
L64.7194 50.8051
" />
<path d="M65.3384 51.4241
L65.2432 51.3765
" />
<path d="M65.2432 51.3765
L65.1956 51.3289
" />
<path d="M65.1956 51.3289
L65.1480 51.2336
" />
<path d="M65.1480 51.2336
L65.1480 50.9479
" />
<path d="M65.1480 50.9479
L65.1956 50.8527
" />
<path d="M65.1956 50.8527
L65.2432 50.8051
" />
<path d="M65.2432 50.8051
L65.3384 50.7574
" />
<path d="M65.3384 50.7574
L65.4813 50.7574
" />
<path d="M65.4813 50.7574
L65.5765 50.8051
" />
<path d="M65.5765 50.8051
L65.6241 50.8527
" />
<path d="M65.6241 50.8527
L65.6718 50.9479
" />
<path d="M65.6718 50.9479
L65.6718 51.2336
" />
<path d="M65.6718 51.2336
L65.6241 51.3289
" />
<path d="M65.6241 51.3289
L65.5765 51.3765
" />
<path d="M65.5765 51.3765
L65.4813 51.4241
" />
<path d="M65.4813 51.4241
L65.3384 51.4241
" />
<path d="M66.2432 51.4241
L66.1480 51.3765
" />
<path d="M66.1480 51.3765
L66.1003 51.2812
" />
<path d="M66.1003 51.2812
L66.1003 50.4241
" />
<path d="M67.0527 51.4241
L67.0527 50.4241
" />
<path d="M67.0527 51.3765
L66.9575 51.4241
" />
<path d="M66.9575 51.4241
L66.7670 51.4241
" />
<path d="M66.7670 51.4241
L66.6718 51.3765
" />
<path d="M66.6718 51.3765
L66.6241 51.3289
" />
<path d="M66.6241 51.3289
L66.5765 51.2336
" />
<path d="M66.5765 51.2336
L66.5765 50.9479
" />
<path d="M66.5765 50.9479
L66.6241 50.8527
" />
<path d="M66.6241 50.8527
L66.6718 50.8051
" />
<path d="M66.6718 50.8051
L66.7670 50.7574
" />
<path d="M66.7670 50.7574
L66.9575 50.7574
" />
<path d="M66.9575 50.7574
L67.0527 50.8051
" />
<path d="M67.9099 51.3765
L67.8146 51.4241
" />
<path d="M67.8146 51.4241
L67.6241 51.4241
" />
<path d="M67.6241 51.4241
L67.5289 51.3765
" />
<path d="M67.5289 51.3765
L67.4813 51.2812
" />
<path d="M67.4813 51.2812
L67.4813 50.9003
" />
<path d="M67.4813 50.9003
L67.5289 50.8051
" />
<path d="M67.5289 50.8051
L67.6241 50.7574
" />
<path d="M67.6241 50.7574
L67.8146 50.7574
" />
<path d="M67.8146 50.7574
L67.9099 50.8051
" />
<path d="M67.9099 50.8051
L67.9575 50.9003
" />
<path d="M67.9575 50.9003
L67.9575 50.9955
" />
<path d="M67.9575 50.9955
L67.4813 51.0908
" />
<path d="M68.3860 51.4241
L68.3860 50.7574
" />
<path d="M68.3860 50.9479
L68.4337 50.8527
" />
<path d="M68.4337 50.8527
L68.4813 50.8051
" />
<path d="M68.4813 50.8051
L68.5765 50.7574
" />
<path d="M68.5765 50.7574
L68.6718 50.7574
" />
</g><path d="M33.7553 69.7018
L52.8053 69.7018
" />
<path d="M33.7553 88.7518
L33.7553 69.7018
" />
<path d="M36.2803 72.2268
L36.2803 74.2268
" />
<path d="M36.2803 84.2268
L36.2803 86.2268
" />
<path d="M36.2803 86.2268
L38.2803 86.2268
" />
<path d="M38.2803 72.2268
L36.2803 72.2268
" />
<path d="M48.2803 72.2268
L50.2803 72.2268
" />
<path d="M48.2803 86.2268
L50.2803 86.2268
" />
<path d="M50.2803 72.2268
L50.2803 74.2268
" />
<path d="M50.2803 86.2268
L50.2803 84.2268
" />
<path d="M52.8053 69.7018
L52.8053 88.7518
" />
<path d="M52.8053 88.7518
L33.7553 88.7518
" />
<path d="M94.7153 29.0618
L113.7653 29.0618
" />
<path d="M94.7153 48.1118
L94.7153 29.0618
" />
<path d="M97.2403 31.5868
L97.2403 33.5868
" />
<path d="M97.2403 43.5868
L97.2403 45.5868
" />
<path d="M97.2403 45.5868
L99.2403 45.5868
" />
<path d="M99.2403 31.5868
L97.2403 31.5868
" />
<path d="M109.2403 31.5868
L111.2403 31.5868
" />
<path d="M109.2403 45.5868
L111.2403 45.5868
" />
<path d="M111.2403 31.5868
L111.2403 33.5868
" />
<path d="M111.2403 45.5868
L111.2403 43.5868
" />
<path d="M113.7653 29.0618
L113.7653 48.1118
" />
<path d="M113.7653 48.1118
L94.7153 48.1118
" />
</g>
<g style="fill:#FFFFFF; fill-opacity:0.0; 
stroke:#FFFFFF; stroke-width:0.1200; stroke-opacity:1; 
stroke-linecap:round; stroke-linejoin:round;">
<path d="M15.1683 50.3144
L27.1683 50.3144
" />
<path d="M15.1683 50.3144
L15.1683 12.3144
" />
<path d="M15.1683 44.5644
L27.1683 44.5644
" />
<path d="M17.3883 43.2544
L22.9083 43.2544
" />
<path d="M17.3883 43.2544
L17.3883 20.8744
" />
<path d="M22.9083 43.2544
L22.9083 20.8744
" />
<path d="M22.9083 20.8744
L17.3883 20.8744
" />
<path d="M15.1683 14.5644
L27.1683 14.5644
" />
<path d="M15.1683 12.3144
L27.1683 12.3144
" />
<path d="M27.1683 12.3144
L27.1683 50.3144
" />
</g>
<g style="fill:#FFFFFF; fill-opacity:0.0; 
stroke:#FFFFFF; stroke-width:0.1500; stroke-opacity:1; 
stroke-linecap:round; stroke-linejoin:round;">
<path d="M94.7153 49.3818
L113.7653 49.3818
" />
<path d="M94.7153 68.4318
L94.7153 49.3818
" />
<path d="M97.2403 51.9068
L97.2403 53.9068
" />
<path d="M97.2403 63.9068
L97.2403 65.9068
" />
<path d="M97.2403 65.9068
L99.2403 65.9068
" />
<path d="M99.2403 51.9068
L97.2403 51.9068
" />
<path d="M109.2403 51.9068
L111.2403 51.9068
" />
<path d="M109.2403 65.9068
L111.2403 65.9068
" />
<path d="M111.2403 51.9068
L111.2403 53.9068
" />
<path d="M111.2403 65.9068
L111.2403 63.9068
" />
<path d="M113.7653 49.3818
L113.7653 68.4318
" />
<path d="M113.7653 68.4318
L94.7153 68.4318
" />
<path d="M74.3953 49.3818
L93.4453 49.3818
" />
<path d="M74.3953 68.4318
L74.3953 49.3818
" />
<path d="M76.9203 51.9068
L76.9203 53.9068
" />
<path d="M76.9203 63.9068
L76.9203 65.9068
" />
<path d="M76.9203 65.9068
L78.9203 65.9068
" />
<path d="M78.9203 51.9068
L76.9203 51.9068
" />
<path d="M88.9203 51.9068
L90.9203 51.9068
" />
<path d="M88.9203 65.9068
L90.9203 65.9068
" />
<path d="M90.9203 51.9068
L90.9203 53.9068
" />
<path d="M90.9203 65.9068
L90.9203 63.9068
" />
<path d="M93.4453 49.3818
L93.4453 68.4318
" />
<path d="M93.4453 68.4318
L74.3953 68.4318
" />
<path d="M74.3953 8.7418
L93.4453 8.7418
" />
<path d="M74.3953 27.7918
L74.3953 8.7418
" />
<path d="M76.9203 11.2668
L76.9203 13.2668
" />
<path d="M76.9203 23.2668
L76.9203 25.2668
" />
<path d="M76.9203 25.2668
L78.9203 25.2668
" />
<path d="M78.9203 11.2668
L76.9203 11.2668
" />
<path d="M88.9203 11.2668
L90.9203 11.2668
" />
<path d="M88.9203 25.2668
L90.9203 25.2668
" />
<path d="M90.9203 11.2668
L90.9203 13.2668
" />
<path d="M90.9203 25.2668
L90.9203 23.2668
" />
<path d="M93.4453 8.7418
L93.4453 27.7918
" />
<path d="M93.4453 27.7918
L74.3953 27.7918
" />
<path d="M74.3953 69.7018
L93.4453 69.7018
" />
<path d="M74.3953 88.7518
L74.3953 69.7018
" />
<path d="M76.9203 72.2268
L76.9203 74.2268
" />
<path d="M76.9203 84.2268
L76.9203 86.2268
" />
<path d="M76.9203 86.2268
L78.9203 86.2268
" />
<path d="M78.9203 72.2268
L76.9203 72.2268
" />
<path d="M88.9203 72.2268
L90.9203 72.2268
" />
<path d="M88.9203 86.2268
L90.9203 86.2268
" />
<path d="M90.9203 72.2268
L90.9203 74.2268
" />
<path d="M90.9203 86.2268
L90.9203 84.2268
" />
<path d="M93.4453 69.7018
L93.4453 88.7518
" />
<path d="M93.4453 88.7518
L74.3953 88.7518
" />
<path d="M33.7553 29.0618
L52.8053 29.0618
" />
<path d="M33.7553 48.1118
L33.7553 29.0618
" />
<path d="M36.2803 31.5868
L36.2803 33.5868
" />
<path d="M36.2803 43.5868
L36.2803 45.5868
" />
<path d="M36.2803 45.5868
L38.2803 45.5868
" />
<path d="M38.2803 31.5868
L36.2803 31.5868
" />
<path d="M48.2803 31.5868
L50.2803 31.5868
" />
<path d="M48.2803 45.5868
L50.2803 45.5868
" />
<path d="M50.2803 31.5868
L50.2803 33.5868
" />
<path d="M50.2803 45.5868
L50.2803 43.5868
" />
<path d="M52.8053 29.0618
L52.8053 48.1118
" />
<path d="M52.8053 48.1118
L33.7553 48.1118
" />
<path d="M74.3953 29.0618
L93.4453 29.0618
" />
<path d="M74.3953 48.1118
L74.3953 29.0618
" />
<path d="M76.9203 31.5868
L76.9203 33.5868
" />
<path d="M76.9203 43.5868
L76.9203 45.5868
" />
<path d="M76.9203 45.5868
L78.9203 45.5868
" />
<path d="M78.9203 31.5868
L76.9203 31.5868
" />
<path d="M88.9203 31.5868
L90.9203 31.5868
" />
<path d="M88.9203 45.5868
L90.9203 45.5868
" />
<path d="M90.9203 31.5868
L90.9203 33.5868
" />
<path d="M90.9203 45.5868
L90.9203 43.5868
" />
<path d="M93.4453 29.0618
L93.4453 48.1118
" />
<path d="M93.4453 48.1118
L74.3953 48.1118
" />
<path d="M94.7153 8.7418
L113.7653 8.7418
" />
<path d="M94.7153 27.7918
L94.7153 8.7418
" />
<path d="M97.2403 11.2668
L97.2403 13.2668
" />
<path d="M97.2403 23.2668
L97.2403 25.2668
" />
<path d="M97.2403 25.2668
L99.2403 25.2668
" />
<path d="M99.2403 11.2668
L97.2403 11.2668
" />
<path d="M109.2403 11.2668
L111.2403 11.2668
" />
<path d="M109.2403 25.2668
L111.2403 25.2668
" />
<path d="M111.2403 11.2668
L111.2403 13.2668
" />
<path d="M111.2403 25.2668
L111.2403 23.2668
" />
<path d="M113.7653 8.7418
L113.7653 27.7918
" />
<path d="M113.7653 27.7918
L94.7153 27.7918
" />
<path d="M54.0753 69.7018
L73.1253 69.7018
" />
<path d="M54.0753 88.7518
L54.0753 69.7018
" />
<path d="M56.6003 72.2268
L56.6003 74.2268
" />
<path d="M56.6003 84.2268
L56.6003 86.2268
" />
<path d="M56.6003 86.2268
L58.6003 86.2268
" />
<path d="M58.6003 72.2268
L56.6003 72.2268
" />
<path d="M68.6003 72.2268
L70.6003 72.2268
" />
<path d="M68.6003 86.2268
L70.6003 86.2268
" />
<path d="M70.6003 72.2268
L70.6003 74.2268
" />
<path d="M70.6003 86.2268
L70.6003 84.2268
" />
<path d="M73.1253 69.7018
L73.1253 88.7518
" />
<path d="M73.1253 88.7518
L54.0753 88.7518
" />
<path d="M54.0753 8.7418
L73.1253 8.7418
" />
<path d="M54.0753 27.7918
L54.0753 8.7418
" />
<path d="M56.6003 11.2668
L56.6003 13.2668
" />
<path d="M56.6003 23.2668
L56.6003 25.2668
" />
<path d="M56.6003 25.2668
L58.6003 25.2668
" />
<path d="M58.6003 11.2668
L56.6003 11.2668
" />
<path d="M68.6003 11.2668
L70.6003 11.2668
" />
<path d="M68.6003 25.2668
L70.6003 25.2668
" />
<path d="M70.6003 11.2668
L70.6003 13.2668
" />
<path d="M70.6003 25.2668
L70.6003 23.2668
" />
<path d="M73.1253 8.7418
L73.1253 27.7918
" />
<path d="M73.1253 27.7918
L54.0753 27.7918
" />
<path d="M33.7553 49.3818
L52.8053 49.3818
" />
<path d="M33.7553 68.4318
L33.7553 49.3818
" />
<path d="M36.2803 51.9068
L36.2803 53.9068
" />
<path d="M36.2803 63.9068
L36.2803 65.9068
" />
<path d="M36.2803 65.9068
L38.2803 65.9068
" />
<path d="M38.2803 51.9068
L36.2803 51.9068
" />
<path d="M48.2803 51.9068
L50.2803 51.9068
" />
<path d="M48.2803 65.9068
L50.2803 65.9068
" />
<path d="M50.2803 51.9068
L50.2803 53.9068
" />
<path d="M50.2803 65.9068
L50.2803 63.9068
" />
<path d="M52.8053 49.3818
L52.8053 68.4318
" />
<path d="M52.8053 68.4318
L33.7553 68.4318
" />
<path d="M54.0753 29.0618
L73.1253 29.0618
" />
<path d="M54.0753 48.1118
L54.0753 29.0618
" />
<path d="M56.6003 31.5868
L56.6003 33.5868
" />
<path d="M56.6003 43.5868
L56.6003 45.5868
" />
<path d="M56.6003 45.5868
L58.6003 45.5868
" />
<path d="M58.6003 31.5868
L56.6003 31.5868
" />
<path d="M68.6003 31.5868
L70.6003 31.5868
" />
<path d="M68.6003 45.5868
L70.6003 45.5868
" />
<path d="M70.6003 31.5868
L70.6003 33.5868
" />
<path d="M70.6003 45.5868
L70.6003 43.5868
" />
<path d="M73.1253 29.0618
L73.1253 48.1118
" />
<path d="M73.1253 48.1118
L54.0753 48.1118
" />
<path d="M94.7153 69.7018
L113.7653 69.7018
" />
<path d="M94.7153 88.7518
L94.7153 69.7018
" />
<path d="M97.2403 72.2268
L97.2403 74.2268
" />
<path d="M97.2403 84.2268
L97.2403 86.2268
" />
<path d="M97.2403 86.2268
L99.2403 86.2268
" />
<path d="M99.2403 72.2268
L97.2403 72.2268
" />
<path d="M109.2403 72.2268
L111.2403 72.2268
" />
<path d="M109.2403 86.2268
L111.2403 86.2268
" />
<path d="M111.2403 72.2268
L111.2403 74.2268
" />
<path d="M111.2403 86.2268
L111.2403 84.2268
" />
<path d="M113.7653 69.7018
L113.7653 88.7518
" />
<path d="M113.7653 88.7518
L94.7153 88.7518
" />
<path d="M33.7553 8.7418
L52.8053 8.7418
" />
<path d="M33.7553 27.7918
L33.7553 8.7418
" />
<path d="M36.2803 11.2668
L36.2803 13.2668
" />
<path d="M36.2803 23.2668
L36.2803 25.2668
" />
<path d="M36.2803 25.2668
L38.2803 25.2668
" />
<path d="M38.2803 11.2668
L36.2803 11.2668
" />
<path d="M48.2803 11.2668
L50.2803 11.2668
" />
<path d="M48.2803 25.2668
L50.2803 25.2668
" />
<path d="M50.2803 11.2668
L50.2803 13.2668
" />
<path d="M50.2803 25.2668
L50.2803 23.2668
" />
<path d="M52.8053 8.7418
L52.8053 27.7918
" />
<path d="M52.8053 27.7918
L33.7553 27.7918
" />
<path d="M54.0753 49.3818
L73.1253 49.3818
" />
<path d="M54.0753 68.4318
L54.0753 49.3818
" />
<path d="M56.6003 51.9068
L56.6003 53.9068
" />
<path d="M56.6003 63.9068
L56.6003 65.9068
" />
<path d="M56.6003 65.9068
L58.6003 65.9068
" />
<path d="M58.6003 51.9068
L56.6003 51.9068
" />
<path d="M68.6003 51.9068
L70.6003 51.9068
" />
<path d="M68.6003 65.9068
L70.6003 65.9068
" />
<path d="M70.6003 51.9068
L70.6003 53.9068
" />
<path d="M70.6003 65.9068
L70.6003 63.9068
" />
<path d="M73.1253 49.3818
L73.1253 68.4318
" />
<path d="M73.1253 68.4318
L54.0753 68.4318
" />
<g >
</g>
<g >
</g>
<g >
</g>
<g >
</g>
<g >
</g>
<g >
</g>
<g >
</g>
<g >
</g>
<g >
</g>
<g >
</g>
<g >
</g>
<g >
</g>
<g >
</g>
<g >
</g>
<g >
</g>
<g >
</g>
<g >
</g>
<g >
</g>
<g >
</g>
<g >
</g>
<g >
</g>
<g >
</g>
<g >
</g>
<g >
</g>
<g >
</g>
<g >
</g>
<g >
</g>
<g >
</g>
<g >
</g>
<g >
</g>
<g >
</g>
<g >
</g>
<g >
</g>
<g >
</g>
<g >
</g>
<g >
</g>
<g >
</g>
<g >
</g>
<g >
</g>
<g >
</g>
<g >
</g>
<g >
</g>
<g >
</g>
<g >
</g>
<g >
</g>
<g >
</g>
<g >
</g>
<g >
</g>
<g >
</g>
<g >
</g>
<g >
</g>
<g >
</g>
<g >
</g>
<g >
</g>
<g >
</g>
<g >
</g>
<g >
</g>
</g>
<g style="fill:#FFFFFF; fill-opacity:0.0; 
stroke:#FFFFFF; stroke-width:0.1500; stroke-opacity:1; 
stroke-linecap:round; stroke-linejoin:round;">
</g>
<g style="fill:#FFFFFF; fill-opacity:0.0; 
stroke:#FFFFFF; stroke-width:0.1000; stroke-opacity:1; 
stroke-linecap:round; stroke-linejoin:round;">
<circle cx="53.3545" cy="33.5226" r="2.0117" /> 
<circle cx="93.9841" cy="33.5181" r="2.0117" /> 
<path d="M7.8406 8.1451
L7.8473 89.3868
" />
<path d="M27.4142 6.9262
L114.4003 6.8368
" />
<circle cx="93.9719" cy="74.1549" r="2.0117" /> 
<path d="M27.4172 27.8223
L27.4142 6.9262
" />
<path d="M9.1106 6.8751 A1.2700 1.2700 0.0 0 0 7.8406 8.1451" />
<circle cx="53.3665" cy="74.1382" r="2.0117" /> 
<circle cx="73.7698" cy="73.5394" r="0.7399" /> 
<circle cx="112.2193" cy="87.2050" r="2.0117" /> 
<path d="M14.6946 27.7852
L27.4172 27.8223
" />
<path d="M14.6977 6.9270
L14.6946 27.7852
" />
<path d="M114.4003 90.6568 A1.2700 1.2700 0.0 0 0 115.6703 89.3868" />
<path d="M114.4003 90.6568
L9.1173 90.6568
" />
<path d="M7.8473 89.3868 A1.2700 1.2700 0.0 0 0 9.1173 90.6568" />
<path d="M9.1106 6.8751
L14.6977 6.9270
" />
<path d="M115.6703 8.1068
L115.6703 89.3868
" />
<path d="M115.6703 8.1068 A1.2700 1.2700 0.0 0 0 114.4003 6.8368" />
</g>
<g style="fill:#FFFFFF; fill-opacity:0.0; 
stroke:#FFFFFF; stroke-width:0.1200; stroke-opacity:1; 
stroke-linecap:round; stroke-linejoin:round;">
<path d="M44.9831 26.1376
L44.9831 23.1376
" />
<path d="M44.9831 23.1376
L41.5831 23.1376
" />
<path d="M41.5831 26.1376
L44.9831 26.1376
" />
<path d="M41.5831 23.1376
L41.5831 26.1376
" />
<path d="M61.9086 43.4442
L61.9086 46.4442
" />
<path d="M61.9086 46.4442
L65.3086 46.4442
" />
<path d="M65.3086 43.4442
L61.9086 43.4442
" />
<path d="M65.3086 46.4442
L65.3086 43.4442
" />
<path d="M105.9421 66.7491
L105.9421 63.7491
" />
<path d="M105.9421 63.7491
L102.5421 63.7491
" />
<path d="M102.5421 66.7491
L105.9421 66.7491
" />
<path d="M102.5421 63.7491
L102.5421 66.7491
" />
<path d="M102.5412 84.0934
L102.5412 87.0934
" />
<path d="M102.5412 87.0934
L105.9412 87.0934
" />
<path d="M105.9412 84.0934
L102.5412 84.0934
" />
<path d="M105.9412 87.0934
L105.9412 84.0934
" />
<path d="M82.2149 84.1021
L82.2149 87.1021
" />
<path d="M82.2149 87.1021
L85.6149 87.1021
" />
<path d="M85.6149 84.1021
L82.2149 84.1021
" />
<path d="M85.6149 87.1021
L85.6149 84.1021
" />
<path d="M65.3112 66.7755
L65.3112 63.7755
" />
<path d="M65.3112 63.7755
L61.9112 63.7755
" />
<path d="M61.9112 66.7755
L65.3112 66.7755
" />
<path d="M61.9112 63.7755
L61.9112 66.7755
" />
<path d="M61.9185 84.0866
L61.9185 87.0866
" />
<path d="M61.9185 87.0866
L65.3185 87.0866
" />
<path d="M65.3185 84.0866
L61.9185 84.0866
" />
<path d="M65.3185 87.0866
L65.3185 84.0866
" />
<path d="M65.2740 26.1611
L65.2740 23.1611
" />
<path d="M65.2740 23.1611
L61.8740 23.1611
" />
<path d="M61.8740 26.1611
L65.2740 26.1611
" />
<path d="M61.8740 23.1611
L61.8740 26.1611
" />
<path d="M85.6348 66.7872
L85.6348 63.7872
" />
<path d="M85.6348 63.7872
L82.2348 63.7872
" />
<path d="M82.2348 66.7872
L85.6348 66.7872
" />
<path d="M82.2348 63.7872
L82.2348 66.7872
" />
<path d="M41.5929 43.4456
L41.5929 46.4456
" />
<path d="M41.5929 46.4456
L44.9929 46.4456
" />
<path d="M44.9929 43.4456
L41.5929 43.4456
" />
<path d="M44.9929 46.4456
L44.9929 43.4456
" />
<path d="M41.5849 84.0817
L41.5849 87.0817
" />
<path d="M41.5849 87.0817
L44.9849 87.0817
" />
<path d="M44.9849 84.0817
L41.5849 84.0817
" />
<path d="M44.9849 87.0817
L44.9849 84.0817
" />
<path d="M44.9823 66.7666
L44.9823 63.7666
" />
<path d="M44.9823 63.7666
L41.5823 63.7666
" />
<path d="M41.5823 66.7666
L44.9823 66.7666
" />
<path d="M41.5823 63.7666
L41.5823 66.7666
" />
<path d="M102.5349 43.4559
L102.5349 46.4559
" />
<path d="M102.5349 46.4559
L105.9349 46.4559
" />
<path d="M105.9349 43.4559
L102.5349 43.4559
" />
<path d="M105.9349 46.4559
L105.9349 43.4559
" />
<path d="M105.9431 26.1287
L105.9431 23.1287
" />
<path d="M105.9431 23.1287
L102.5431 23.1287
" />
<path d="M102.5431 26.1287
L105.9431 26.1287
" />
<path d="M102.5431 23.1287
L102.5431 26.1287
" />
<path d="M82.2279 43.4619
L82.2279 46.4619
" />
<path d="M82.2279 46.4619
L85.6279 46.4619
" />
<path d="M85.6279 43.4619
L82.2279 43.4619
" />
<path d="M85.6279 46.4619
L85.6279 43.4619
" />
<path d="M85.6134 26.1473
L85.6134 23.1473
" />
<path d="M85.6134 23.1473
L82.2134 23.1473
" />
<path d="M82.2134 26.1473
L85.6134 26.1473
" />
<path d="M82.2134 23.1473
L82.2134 26.1473
" />
<g >
</g>
<g >
</g>
<g >
</g>
<g >
</g>
<g >
</g>
<g >
</g>
<g >
</g>
<g >
</g>
<g >
</g>
<g >
</g>
<g >
</g>
<g >
</g>
<g >
</g>
<g >
</g>
<g >
</g>
<g >
</g>
<g >
</g>
<g >
</g>
<g >
</g>
<g >
</g>
<g >
</g>
<g >
</g>
<g >
</g>
<g >
</g>
<g >
</g>
<g >
</g>
<g >
</g>
<g >
</g>
<g >
</g>
<g >
</g>
<g >
</g>
<g >
</g>
<g >
</g>
<g >
</g>
<g >
</g>
<g >
</g>
<g >
</g>
<g >
</g>
<g >
</g>
<g >
</g>
<g >
</g>
<g >
</g>
<g >
</g>
<g >
</g>
<g >
</g>
<g >
</g>
<g >
</g>
<g >
</g>
<g >
</g>
<g >
</g>
<g >
</g>
<g >
</g>
<g >
</g>
<g >
</g>
<g >
</g>
<g >
</g>
<g >
</g>
</g> 
</svg>
