%TF.GenerationSoftware,KiCad,Pcbnew,7.0.7*%
%TF.CreationDate,2023-09-24T17:48:37+02:00*%
%TF.ProjectId,pcb,7063622e-6b69-4636-9164-5f7063625858,rev?*%
%TF.SameCoordinates,Original*%
%TF.FileFunction,Soldermask,Top*%
%TF.FilePolarity,Negative*%
%FSLAX46Y46*%
G04 Gerber Fmt 4.6, Leading zero omitted, Abs format (unit mm)*
G04 Created by KiCad (PCBNEW 7.0.7) date 2023-09-24 17:48:37*
%MOMM*%
%LPD*%
G01*
G04 APERTURE LIST*
G04 Aperture macros list*
%AMRoundRect*
0 Rectangle with rounded corners*
0 $1 Rounding radius*
0 $2 $3 $4 $5 $6 $7 $8 $9 X,Y pos of 4 corners*
0 Add a 4 corners polygon primitive as box body*
4,1,4,$2,$3,$4,$5,$6,$7,$8,$9,$2,$3,0*
0 Add four circle primitives for the rounded corners*
1,1,$1+$1,$2,$3*
1,1,$1+$1,$4,$5*
1,1,$1+$1,$6,$7*
1,1,$1+$1,$8,$9*
0 Add four rect primitives between the rounded corners*
20,1,$1+$1,$2,$3,$4,$5,0*
20,1,$1+$1,$4,$5,$6,$7,0*
20,1,$1+$1,$6,$7,$8,$9,0*
20,1,$1+$1,$8,$9,$2,$3,0*%
G04 Aperture macros list end*
%ADD10C,3.000000*%
%ADD11C,3.987800*%
%ADD12C,1.750000*%
%ADD13RoundRect,0.400000X-0.900000X-0.400000X0.900000X-0.400000X0.900000X0.400000X-0.900000X0.400000X0*%
%ADD14RoundRect,0.400050X-0.899950X-0.400050X0.899950X-0.400050X0.899950X0.400050X-0.899950X0.400050X0*%
%ADD15RoundRect,0.400000X-0.400000X-0.900000X0.400000X-0.900000X0.400000X0.900000X-0.400000X0.900000X0*%
%ADD16RoundRect,0.393700X-0.393700X-0.906300X0.393700X-0.906300X0.393700X0.906300X-0.393700X0.906300X0*%
%ADD17O,1.600000X1.600000*%
%ADD18R,1.600000X1.600000*%
%ADD19O,1.700000X1.700000*%
%ADD20R,1.700000X1.700000*%
G04 APERTURE END LIST*
D10*
%TO.C,SW16*%
X160020000Y-142240000D03*
D11*
X157480000Y-147320000D03*
D10*
X153670000Y-144780000D03*
D12*
X152400000Y-147320000D03*
X162560000Y-147320000D03*
%TD*%
D10*
%TO.C,SW15*%
X139700000Y-142240000D03*
D11*
X137160000Y-147320000D03*
D10*
X133350000Y-144780000D03*
D12*
X132080000Y-147320000D03*
X142240000Y-147320000D03*
%TD*%
D10*
%TO.C,SW14*%
X119380000Y-142240000D03*
D11*
X116840000Y-147320000D03*
D10*
X113030000Y-144780000D03*
D12*
X111760000Y-147320000D03*
X121920000Y-147320000D03*
%TD*%
D10*
%TO.C,SW13*%
X99060000Y-142240000D03*
D11*
X96520000Y-147320000D03*
D10*
X92710000Y-144780000D03*
D12*
X91440000Y-147320000D03*
X101600000Y-147320000D03*
%TD*%
D10*
%TO.C,SW12*%
X160020000Y-121920000D03*
D11*
X157480000Y-127000000D03*
D10*
X153670000Y-124460000D03*
D12*
X152400000Y-127000000D03*
X162560000Y-127000000D03*
%TD*%
D10*
%TO.C,SW11*%
X139700000Y-121920000D03*
D11*
X137160000Y-127000000D03*
D10*
X133350000Y-124460000D03*
D12*
X132080000Y-127000000D03*
X142240000Y-127000000D03*
%TD*%
D10*
%TO.C,SW10*%
X119380000Y-121920000D03*
D11*
X116840000Y-127000000D03*
D10*
X113030000Y-124460000D03*
D12*
X111760000Y-127000000D03*
X121920000Y-127000000D03*
%TD*%
D10*
%TO.C,SW9*%
X99060000Y-121920000D03*
D11*
X96520000Y-127000000D03*
D10*
X92710000Y-124460000D03*
D12*
X91440000Y-127000000D03*
X101600000Y-127000000D03*
%TD*%
D10*
%TO.C,SW8*%
X160020000Y-101600000D03*
D11*
X157480000Y-106680000D03*
D10*
X153670000Y-104140000D03*
D12*
X152400000Y-106680000D03*
X162560000Y-106680000D03*
%TD*%
D10*
%TO.C,SW7*%
X139700000Y-101600000D03*
D11*
X137160000Y-106680000D03*
D10*
X133350000Y-104140000D03*
D12*
X132080000Y-106680000D03*
X142240000Y-106680000D03*
%TD*%
D10*
%TO.C,SW6*%
X119380000Y-101600000D03*
D11*
X116840000Y-106680000D03*
D10*
X113030000Y-104140000D03*
D12*
X111760000Y-106680000D03*
X121920000Y-106680000D03*
%TD*%
D10*
%TO.C,SW5*%
X99060000Y-101600000D03*
D11*
X96520000Y-106680000D03*
D10*
X92710000Y-104140000D03*
D12*
X91440000Y-106680000D03*
X101600000Y-106680000D03*
%TD*%
D10*
%TO.C,SW4*%
X160020000Y-81280000D03*
D11*
X157480000Y-86360000D03*
D10*
X153670000Y-83820000D03*
D12*
X152400000Y-86360000D03*
X162560000Y-86360000D03*
%TD*%
D10*
%TO.C,SW3*%
X139700000Y-81280000D03*
D11*
X137160000Y-86360000D03*
D10*
X133350000Y-83820000D03*
D12*
X132080000Y-86360000D03*
X142240000Y-86360000D03*
%TD*%
D10*
%TO.C,SW2*%
X119380000Y-81280000D03*
D11*
X116840000Y-86360000D03*
D10*
X113030000Y-83820000D03*
D12*
X111760000Y-86360000D03*
X121920000Y-86360000D03*
%TD*%
D10*
%TO.C,SW1*%
X99060000Y-81280000D03*
D11*
X96520000Y-86360000D03*
D10*
X92710000Y-83820000D03*
D12*
X91440000Y-86360000D03*
X101600000Y-86360000D03*
%TD*%
D13*
%TO.C,U1*%
X82436029Y-76594177D03*
X82436029Y-79134177D03*
X82436029Y-81674177D03*
X82436029Y-84214177D03*
X82436029Y-86754177D03*
D14*
X82436029Y-89294177D03*
X82436029Y-91834177D03*
X82436029Y-94374177D03*
X82436029Y-96914177D03*
D15*
X79296029Y-97724177D03*
D16*
X76756029Y-97724177D03*
X74216029Y-97724177D03*
X71676029Y-97724177D03*
X69136029Y-97724177D03*
D14*
X65996029Y-96914177D03*
X65996029Y-94374177D03*
X65996029Y-91834177D03*
X65996029Y-89294177D03*
X65996029Y-76594177D03*
X65996029Y-79134177D03*
X65996029Y-81674177D03*
X65996029Y-86754177D03*
X65996029Y-84214177D03*
%TD*%
D17*
%TO.C,D2*%
X66913698Y-131953000D03*
D18*
X66913698Y-139573000D03*
%TD*%
%TO.C,D7*%
X81601901Y-139540884D03*
D17*
X81601901Y-131920884D03*
%TD*%
%TO.C,D1*%
X63977148Y-131953000D03*
D18*
X63977148Y-139573000D03*
%TD*%
%TO.C,D9*%
X63912456Y-153890711D03*
D17*
X63912456Y-146270711D03*
%TD*%
%TO.C,D16*%
X84480087Y-146206919D03*
D18*
X84480087Y-153826919D03*
%TD*%
%TO.C,D13*%
X75670435Y-153826919D03*
D17*
X75670435Y-146206919D03*
%TD*%
D18*
%TO.C,D5*%
X75723348Y-139573000D03*
D17*
X75723348Y-131953000D03*
%TD*%
D18*
%TO.C,D15*%
X81548988Y-153794803D03*
D17*
X81548988Y-146174803D03*
%TD*%
D18*
%TO.C,D3*%
X69850248Y-139573000D03*
D17*
X69850248Y-131953000D03*
%TD*%
D19*
%TO.C,J1*%
X70587982Y-116807570D03*
X73127982Y-116807570D03*
X75667982Y-116807570D03*
D20*
X78207982Y-116807570D03*
%TD*%
D18*
%TO.C,D11*%
X69785556Y-153890711D03*
D17*
X69785556Y-146270711D03*
%TD*%
D18*
%TO.C,D6*%
X78659898Y-139573000D03*
D17*
X78659898Y-131953000D03*
%TD*%
D18*
%TO.C,D10*%
X66849006Y-153890711D03*
D17*
X66849006Y-146270711D03*
%TD*%
D18*
%TO.C,D14*%
X78606985Y-153826919D03*
D17*
X78606985Y-146206919D03*
%TD*%
D18*
%TO.C,D4*%
X72786798Y-139573000D03*
D17*
X72786798Y-131953000D03*
%TD*%
D18*
%TO.C,D12*%
X72725064Y-153890200D03*
D17*
X72725064Y-146270200D03*
%TD*%
D18*
%TO.C,D8*%
X84533000Y-139573000D03*
D17*
X84533000Y-131953000D03*
%TD*%
M02*
