%TF.GenerationSoftware,KiCad,Pcbnew,7.0.7*%
%TF.CreationDate,2023-09-24T17:48:37+02:00*%
%TF.ProjectId,pcb,7063622e-6b69-4636-9164-5f7063625858,rev?*%
%TF.SameCoordinates,Original*%
%TF.FileFunction,Soldermask,Bot*%
%TF.FilePolarity,Negative*%
%FSLAX46Y46*%
G04 Gerber Fmt 4.6, Leading zero omitted, Abs format (unit mm)*
G04 Created by KiCad (PCBNEW 7.0.7) date 2023-09-24 17:48:37*
%MOMM*%
%LPD*%
G01*
G04 APERTURE LIST*
G04 Aperture macros list*
%AMRoundRect*
0 Rectangle with rounded corners*
0 $1 Rounding radius*
0 $2 $3 $4 $5 $6 $7 $8 $9 X,Y pos of 4 corners*
0 Add a 4 corners polygon primitive as box body*
4,1,4,$2,$3,$4,$5,$6,$7,$8,$9,$2,$3,0*
0 Add four circle primitives for the rounded corners*
1,1,$1+$1,$2,$3*
1,1,$1+$1,$4,$5*
1,1,$1+$1,$6,$7*
1,1,$1+$1,$8,$9*
0 Add four rect primitives between the rounded corners*
20,1,$1+$1,$2,$3,$4,$5,0*
20,1,$1+$1,$4,$5,$6,$7,0*
20,1,$1+$1,$6,$7,$8,$9,0*
20,1,$1+$1,$8,$9,$2,$3,0*%
G04 Aperture macros list end*
%ADD10C,3.000000*%
%ADD11C,3.987800*%
%ADD12C,1.750000*%
%ADD13R,2.550000X2.500000*%
%ADD14RoundRect,0.400000X-0.900000X-0.400000X0.900000X-0.400000X0.900000X0.400000X-0.900000X0.400000X0*%
%ADD15RoundRect,0.400050X-0.899950X-0.400050X0.899950X-0.400050X0.899950X0.400050X-0.899950X0.400050X0*%
%ADD16RoundRect,0.400000X-0.400000X-0.900000X0.400000X-0.900000X0.400000X0.900000X-0.400000X0.900000X0*%
%ADD17RoundRect,0.393700X-0.393700X-0.906300X0.393700X-0.906300X0.393700X0.906300X-0.393700X0.906300X0*%
%ADD18O,1.600000X1.600000*%
%ADD19R,1.600000X1.600000*%
%ADD20O,1.700000X1.700000*%
%ADD21R,1.700000X1.700000*%
%ADD22R,1.700000X0.820000*%
%ADD23RoundRect,0.205000X0.645000X0.205000X-0.645000X0.205000X-0.645000X-0.205000X0.645000X-0.205000X0*%
%ADD24RoundRect,0.205000X-0.645000X-0.205000X0.645000X-0.205000X0.645000X0.205000X-0.645000X0.205000X0*%
G04 APERTURE END LIST*
D10*
%TO.C,SW16*%
X160020000Y-142240000D03*
D11*
X157480000Y-147320000D03*
D10*
X153670000Y-144780000D03*
D12*
X152400000Y-147320000D03*
X162560000Y-147320000D03*
D13*
X150395000Y-144780000D03*
X163322000Y-142240000D03*
%TD*%
D10*
%TO.C,SW15*%
X139700000Y-142240000D03*
D11*
X137160000Y-147320000D03*
D10*
X133350000Y-144780000D03*
D12*
X132080000Y-147320000D03*
X142240000Y-147320000D03*
D13*
X130075000Y-144780000D03*
X143002000Y-142240000D03*
%TD*%
D10*
%TO.C,SW14*%
X119380000Y-142240000D03*
D11*
X116840000Y-147320000D03*
D10*
X113030000Y-144780000D03*
D12*
X111760000Y-147320000D03*
X121920000Y-147320000D03*
D13*
X109755000Y-144780000D03*
X122682000Y-142240000D03*
%TD*%
D10*
%TO.C,SW13*%
X99060000Y-142240000D03*
D11*
X96520000Y-147320000D03*
D10*
X92710000Y-144780000D03*
D12*
X91440000Y-147320000D03*
X101600000Y-147320000D03*
D13*
X89435000Y-144780000D03*
X102362000Y-142240000D03*
%TD*%
D10*
%TO.C,SW12*%
X160020000Y-121920000D03*
D11*
X157480000Y-127000000D03*
D10*
X153670000Y-124460000D03*
D12*
X152400000Y-127000000D03*
X162560000Y-127000000D03*
D13*
X150395000Y-124460000D03*
X163322000Y-121920000D03*
%TD*%
D10*
%TO.C,SW11*%
X139700000Y-121920000D03*
D11*
X137160000Y-127000000D03*
D10*
X133350000Y-124460000D03*
D12*
X132080000Y-127000000D03*
X142240000Y-127000000D03*
D13*
X130075000Y-124460000D03*
X143002000Y-121920000D03*
%TD*%
D10*
%TO.C,SW10*%
X119380000Y-121920000D03*
D11*
X116840000Y-127000000D03*
D10*
X113030000Y-124460000D03*
D12*
X111760000Y-127000000D03*
X121920000Y-127000000D03*
D13*
X109755000Y-124460000D03*
X122682000Y-121920000D03*
%TD*%
D10*
%TO.C,SW9*%
X99060000Y-121920000D03*
D11*
X96520000Y-127000000D03*
D10*
X92710000Y-124460000D03*
D12*
X91440000Y-127000000D03*
X101600000Y-127000000D03*
D13*
X89435000Y-124460000D03*
X102362000Y-121920000D03*
%TD*%
D10*
%TO.C,SW8*%
X160020000Y-101600000D03*
D11*
X157480000Y-106680000D03*
D10*
X153670000Y-104140000D03*
D12*
X152400000Y-106680000D03*
X162560000Y-106680000D03*
D13*
X150395000Y-104140000D03*
X163322000Y-101600000D03*
%TD*%
D10*
%TO.C,SW7*%
X139700000Y-101600000D03*
D11*
X137160000Y-106680000D03*
D10*
X133350000Y-104140000D03*
D12*
X132080000Y-106680000D03*
X142240000Y-106680000D03*
D13*
X130075000Y-104140000D03*
X143002000Y-101600000D03*
%TD*%
D10*
%TO.C,SW6*%
X119380000Y-101600000D03*
D11*
X116840000Y-106680000D03*
D10*
X113030000Y-104140000D03*
D12*
X111760000Y-106680000D03*
X121920000Y-106680000D03*
D13*
X109755000Y-104140000D03*
X122682000Y-101600000D03*
%TD*%
D10*
%TO.C,SW5*%
X99060000Y-101600000D03*
D11*
X96520000Y-106680000D03*
D10*
X92710000Y-104140000D03*
D12*
X91440000Y-106680000D03*
X101600000Y-106680000D03*
D13*
X89435000Y-104140000D03*
X102362000Y-101600000D03*
%TD*%
D10*
%TO.C,SW4*%
X160020000Y-81280000D03*
D11*
X157480000Y-86360000D03*
D10*
X153670000Y-83820000D03*
D12*
X152400000Y-86360000D03*
X162560000Y-86360000D03*
D13*
X150395000Y-83820000D03*
X163322000Y-81280000D03*
%TD*%
D10*
%TO.C,SW3*%
X139700000Y-81280000D03*
D11*
X137160000Y-86360000D03*
D10*
X133350000Y-83820000D03*
D12*
X132080000Y-86360000D03*
X142240000Y-86360000D03*
D13*
X130075000Y-83820000D03*
X143002000Y-81280000D03*
%TD*%
D10*
%TO.C,SW2*%
X119380000Y-81280000D03*
D11*
X116840000Y-86360000D03*
D10*
X113030000Y-83820000D03*
D12*
X111760000Y-86360000D03*
X121920000Y-86360000D03*
D13*
X109755000Y-83820000D03*
X122682000Y-81280000D03*
%TD*%
D10*
%TO.C,SW1*%
X99060000Y-81280000D03*
D11*
X96520000Y-86360000D03*
D10*
X92710000Y-83820000D03*
D12*
X91440000Y-86360000D03*
X101600000Y-86360000D03*
D13*
X89435000Y-83820000D03*
X102362000Y-81280000D03*
%TD*%
D14*
%TO.C,U1*%
X82436029Y-76594177D03*
X82436029Y-79134177D03*
X82436029Y-81674177D03*
X82436029Y-84214177D03*
X82436029Y-86754177D03*
D15*
X82436029Y-89294177D03*
X82436029Y-91834177D03*
X82436029Y-94374177D03*
X82436029Y-96914177D03*
D16*
X79296029Y-97724177D03*
D17*
X76756029Y-97724177D03*
X74216029Y-97724177D03*
X71676029Y-97724177D03*
X69136029Y-97724177D03*
D15*
X65996029Y-96914177D03*
X65996029Y-94374177D03*
X65996029Y-91834177D03*
X65996029Y-89294177D03*
X65996029Y-76594177D03*
X65996029Y-79134177D03*
X65996029Y-81674177D03*
X65996029Y-86754177D03*
X65996029Y-84214177D03*
%TD*%
D18*
%TO.C,D2*%
X66913698Y-131953000D03*
D19*
X66913698Y-139573000D03*
%TD*%
%TO.C,D7*%
X81601901Y-139540884D03*
D18*
X81601901Y-131920884D03*
%TD*%
%TO.C,D1*%
X63977148Y-131953000D03*
D19*
X63977148Y-139573000D03*
%TD*%
%TO.C,D9*%
X63912456Y-153890711D03*
D18*
X63912456Y-146270711D03*
%TD*%
%TO.C,D16*%
X84480087Y-146206919D03*
D19*
X84480087Y-153826919D03*
%TD*%
%TO.C,D13*%
X75670435Y-153826919D03*
D18*
X75670435Y-146206919D03*
%TD*%
D19*
%TO.C,D5*%
X75723348Y-139573000D03*
D18*
X75723348Y-131953000D03*
%TD*%
D19*
%TO.C,D15*%
X81548988Y-153794803D03*
D18*
X81548988Y-146174803D03*
%TD*%
D19*
%TO.C,D3*%
X69850248Y-139573000D03*
D18*
X69850248Y-131953000D03*
%TD*%
D20*
%TO.C,J1*%
X70587982Y-116807570D03*
X73127982Y-116807570D03*
X75667982Y-116807570D03*
D21*
X78207982Y-116807570D03*
%TD*%
D19*
%TO.C,D11*%
X69785556Y-153890711D03*
D18*
X69785556Y-146270711D03*
%TD*%
D19*
%TO.C,D6*%
X78659898Y-139573000D03*
D18*
X78659898Y-131953000D03*
%TD*%
D19*
%TO.C,D10*%
X66849006Y-153890711D03*
D18*
X66849006Y-146270711D03*
%TD*%
D19*
%TO.C,D14*%
X78606985Y-153826919D03*
D18*
X78606985Y-146206919D03*
%TD*%
D19*
%TO.C,D4*%
X72786798Y-139573000D03*
D18*
X72786798Y-131953000D03*
%TD*%
D19*
%TO.C,D12*%
X72725064Y-153890200D03*
D18*
X72725064Y-146270200D03*
%TD*%
D19*
%TO.C,D8*%
X84533000Y-139573000D03*
D18*
X84533000Y-131953000D03*
%TD*%
D22*
%TO.C,LED1*%
X99072745Y-93480807D03*
X99072745Y-91980807D03*
D23*
X93972745Y-91980807D03*
D22*
X93972745Y-93480807D03*
%TD*%
%TO.C,LED6*%
X119398292Y-112287382D03*
D24*
X119398292Y-113787382D03*
D22*
X114298292Y-113787382D03*
X114298292Y-112287382D03*
%TD*%
%TO.C,LED12*%
X160031742Y-134092349D03*
X160031742Y-132592349D03*
D23*
X154931742Y-132592349D03*
D22*
X154931742Y-134092349D03*
%TD*%
%TO.C,LED16*%
X154930844Y-152936667D03*
X154930844Y-154436667D03*
D24*
X160030844Y-154436667D03*
D22*
X160030844Y-152936667D03*
%TD*%
%TO.C,LED15*%
X134604585Y-152945343D03*
X134604585Y-154445343D03*
D24*
X139704585Y-154445343D03*
D22*
X139704585Y-152945343D03*
%TD*%
%TO.C,LED10*%
X119400820Y-134118680D03*
X119400820Y-132618680D03*
D23*
X114300820Y-132618680D03*
D22*
X114300820Y-134118680D03*
%TD*%
%TO.C,LED14*%
X114308197Y-152929803D03*
X114308197Y-154429803D03*
D24*
X119408197Y-154429803D03*
D22*
X119408197Y-152929803D03*
%TD*%
%TO.C,LED2*%
X114263675Y-93504315D03*
D23*
X114263675Y-92004315D03*
D22*
X119363675Y-92004315D03*
X119363675Y-93504315D03*
%TD*%
%TO.C,LED11*%
X139724454Y-134130388D03*
X139724454Y-132630388D03*
D23*
X134624454Y-132630388D03*
D22*
X134624454Y-134130388D03*
%TD*%
%TO.C,LED5*%
X99082527Y-112288793D03*
D24*
X99082527Y-113788793D03*
D22*
X93982527Y-113788793D03*
X93982527Y-112288793D03*
%TD*%
%TO.C,LED13*%
X93974572Y-152924959D03*
X93974572Y-154424959D03*
D24*
X99074572Y-154424959D03*
D22*
X99074572Y-152924959D03*
%TD*%
%TO.C,LED9*%
X99071940Y-134109801D03*
X99071940Y-132609801D03*
D23*
X93971940Y-132609801D03*
D22*
X93971940Y-134109801D03*
%TD*%
%TO.C,LED8*%
X160024562Y-112299105D03*
D24*
X160024562Y-113799105D03*
D22*
X154924562Y-113799105D03*
X154924562Y-112299105D03*
%TD*%
%TO.C,LED4*%
X154932742Y-93471924D03*
D23*
X154932742Y-91971924D03*
D22*
X160032742Y-91971924D03*
X160032742Y-93471924D03*
%TD*%
%TO.C,LED7*%
X139717592Y-112305140D03*
D24*
X139717592Y-113805140D03*
D22*
X134617592Y-113805140D03*
X134617592Y-112305140D03*
%TD*%
%TO.C,LED3*%
X134603059Y-93490493D03*
D23*
X134603059Y-91990493D03*
D22*
X139703059Y-91990493D03*
X139703059Y-93490493D03*
%TD*%
M02*
