M48
; DRILL file {KiCad 7.0.7} date Sun Sep 24 17:48:46 2023
; FORMAT={-:-/ absolute / inch / decimal}
; #@! TF.CreationDate,2023-09-24T17:48:46+02:00
; #@! TF.GenerationSoftware,Kicad,Pcbnew,7.0.7
; #@! TF.FileFunction,NonPlated,1,2,NPTH
FMAT,2
INCH
; #@! TA.AperFunction,NonPlated,NPTH,ComponentDrill
T1C0.0689
; #@! TA.AperFunction,NonPlated,NPTH,ComponentDrill
T2C0.1181
; #@! TA.AperFunction,NonPlated,NPTH,ComponentDrill
T3C0.1570
%
G90
G05
T1
X3.6Y-3.4
X3.6Y-4.2
X3.6Y-5.0
X3.6Y-5.8
X4.0Y-3.4
X4.0Y-4.2
X4.0Y-5.0
X4.0Y-5.8
X4.4Y-3.4
X4.4Y-4.2
X4.4Y-5.0
X4.4Y-5.8
X4.8Y-3.4
X4.8Y-4.2
X4.8Y-5.0
X4.8Y-5.8
X5.2Y-3.4
X5.2Y-4.2
X5.2Y-5.0
X5.2Y-5.8
X5.6Y-3.4
X5.6Y-4.2
X5.6Y-5.0
X5.6Y-5.8
X6.0Y-3.4
X6.0Y-4.2
X6.0Y-5.0
X6.0Y-5.8
X6.4Y-3.4
X6.4Y-4.2
X6.4Y-5.0
X6.4Y-5.8
T2
X3.65Y-3.3
X3.65Y-4.1
X3.65Y-4.9
X3.65Y-5.7
X3.9Y-3.2
X3.9Y-4.0
X3.9Y-4.8
X3.9Y-5.6
X4.45Y-3.3
X4.45Y-4.1
X4.45Y-4.9
X4.45Y-5.7
X4.7Y-3.2
X4.7Y-4.0
X4.7Y-4.8
X4.7Y-5.6
X5.25Y-3.3
X5.25Y-4.1
X5.25Y-4.9
X5.25Y-5.7
X5.5Y-3.2
X5.5Y-4.0
X5.5Y-4.8
X5.5Y-5.6
X6.05Y-3.3
X6.05Y-4.1
X6.05Y-4.9
X6.05Y-5.7
X6.3Y-3.2
X6.3Y-4.0
X6.3Y-4.8
X6.3Y-5.6
T3
X3.8Y-3.4
X3.8Y-4.2
X3.8Y-5.0
X3.8Y-5.8
X4.6Y-3.4
X4.6Y-4.2
X4.6Y-5.0
X4.6Y-5.8
X5.4Y-3.4
X5.4Y-4.2
X5.4Y-5.0
X5.4Y-5.8
X6.2Y-3.4
X6.2Y-4.2
X6.2Y-5.0
X6.2Y-5.8
T0
M30
