M48
; DRILL file {KiCad 7.0.7} date Sun Sep 24 17:48:46 2023
; FORMAT={-:-/ absolute / inch / decimal}
; #@! TF.CreationDate,2023-09-24T17:48:46+02:00
; #@! TF.GenerationSoftware,Kicad,Pcbnew,7.0.7
; #@! TF.FileFunction,Plated,1,2,PTH
FMAT,2
INCH
; #@! TA.AperFunction,Plated,PTH,ViaDrill
T1C0.0157
; #@! TA.AperFunction,Plated,PTH,ComponentDrill
T2C0.0315
; #@! TA.AperFunction,Plated,PTH,ComponentDrill
T3C0.0394
%
G90
G05
T1
X2.9086Y-5.8484
X3.0252Y-5.851
X3.1427Y-5.8475
X3.2576Y-5.8484
X3.3661Y-3.0356
X3.3678Y-3.0749
X3.369Y-3.1143
X3.3708Y-3.1567
X3.3785Y-3.9655
X3.5258Y-5.067
X3.5303Y-5.4037
X3.5481Y-6.0382
X3.581Y-4.5409
X3.9202Y-3.7494
X4.0245Y-5.2796
X4.1682Y-6.0172
X4.2356Y-5.3797
X4.3386Y-5.1466
X4.37Y-4.4323
X4.7241Y-3.7433
X4.7834Y-5.3092
X5.0835Y-5.0759
X5.0967Y-5.3797
X5.1481Y-6.0333
X5.1704Y-4.4343
X5.479Y-5.3834
X5.5275Y-3.7484
X5.9085Y-5.381
X5.9144Y-5.0582
X6.0038Y-4.4407
X6.0101Y-6.003
X6.3279Y-3.7397
X6.328Y-5.3231
X6.4168Y-4.3961
X6.4366Y-3.8181
X6.5512Y-5.3257
X6.5512Y-5.8168
T2
X2.5162Y-5.7587
X2.5162Y-6.0587
X2.5188Y-5.195
X2.5188Y-5.495
X2.6219Y-3.0155
X2.6219Y-3.1155
X2.6219Y-3.2155
X2.6219Y-3.3155
X2.6219Y-3.4155
X2.6219Y-3.5155
X2.6219Y-3.6155
X2.6219Y-3.7155
X2.6219Y-3.8155
X2.6319Y-5.7587
X2.6319Y-6.0587
X2.6344Y-5.195
X2.6344Y-5.495
X2.7219Y-3.8238
X2.7475Y-5.7587
X2.7475Y-6.0587
X2.75Y-5.195
X2.75Y-5.495
X2.8219Y-3.8238
X2.8632Y-5.7587
X2.8632Y-6.0587
X2.8656Y-5.195
X2.8656Y-5.495
X2.9219Y-3.8238
X2.9792Y-5.7562
X2.9792Y-6.0562
X2.9812Y-5.195
X2.9812Y-5.495
X3.0219Y-3.8238
X3.0948Y-5.7562
X3.0948Y-6.0562
X3.0968Y-5.195
X3.0968Y-5.495
X3.1219Y-3.8238
X3.2106Y-5.7549
X3.2106Y-6.0549
X3.2127Y-5.1937
X3.2127Y-5.4937
X3.2219Y-3.0155
X3.2219Y-3.1155
X3.2219Y-3.2155
X3.2219Y-3.3155
X3.2219Y-3.4155
X3.2219Y-3.5155
X3.2219Y-3.6155
X3.2219Y-3.7155
X3.2219Y-3.8155
X3.326Y-5.7562
X3.326Y-6.0562
X3.3281Y-5.195
X3.3281Y-5.495
T3
X2.7791Y-4.5987
X2.8791Y-4.5987
X2.9791Y-4.5987
X3.0791Y-4.5987
T0
M30
